<?xml version="1.0" standalone="no"?>
<!DOCTYPE svg PUBLIC "-//W3C//DTD SVG 20010904//EN"
 "http://www.w3.org/TR/2001/REC-SVG-20010904/DTD/svg10.dtd">
<svg version="1.0" xmlns="http://www.w3.org/2000/svg"
 width="512.000000pt" height="512.000000pt" viewBox="0 0 512.000000 512.000000"
 preserveAspectRatio="xMidYMid meet">
<metadata>
Created by potrace 1.16, written by Peter Selinger 2001-2019
</metadata>
<g transform="translate(0.000000,512.000000) scale(0.100000,-0.100000)"
fill="#000000" stroke="none">
<path d="M3720 5110 c0 -5 -7 -10 -15 -10 -8 0 -15 -7 -15 -15 0 -8 -4 -15
-10 -15 -5 0 -6 -8 -3 -17 5 -12 2 -15 -10 -10 -18 7 -47 -26 -47 -54 0 -9 -7
-19 -15 -23 -11 -4 -15 1 -15 17 0 12 -4 18 -8 12 -4 -5 -13 -10 -21 -10 -18
0 -33 -51 -25 -88 4 -22 1 -29 -17 -35 -12 -5 -31 -7 -43 -6 -11 1 -24 3 -28
3 -13 2 -9 19 7 35 8 8 11 17 6 20 -4 3 -16 -3 -26 -14 -20 -22 -38 -17 -30
10 4 13 -3 21 -25 30 -17 7 -29 18 -27 24 4 13 -21 41 -30 32 -4 -3 -2 -11 4
-17 8 -8 6 -17 -7 -31 -14 -16 -17 -26 -9 -45 12 -33 11 -90 -2 -114 -8 -17
-7 -23 8 -34 15 -11 16 -16 5 -27 -11 -11 -13 -11 -10 1 2 7 -7 15 -21 17 -18
3 -22 1 -17 -11 3 -10 2 -13 -5 -10 -6 4 -8 13 -5 21 8 20 -11 27 -22 8 -11
-20 -36 -9 -28 12 4 10 -3 14 -23 14 -23 0 -28 -4 -28 -24 0 -13 -10 -49 -22
-80 -11 -31 -17 -56 -12 -56 5 0 9 -12 9 -26 0 -15 6 -30 13 -35 9 -5 2 -8
-21 -6 -23 2 -41 -3 -53 -16 -17 -17 -17 -18 13 -28 32 -12 36 -20 20 -49 -12
-23 14 -50 32 -32 8 8 17 7 32 -1 11 -7 22 -13 24 -13 1 -1 -3 -13 -9 -28 -11
-24 -14 -25 -29 -11 -19 17 -31 10 -23 -13 4 -10 2 -13 -5 -8 -7 4 -12 13 -12
21 0 9 -8 12 -21 10 -12 -2 -28 2 -36 10 -23 23 -46 19 -40 -7 4 -14 0 -26
-11 -34 -11 -9 -12 -13 -4 -14 6 0 12 -7 12 -16 0 -12 7 -14 30 -9 27 6 30 4
30 -17 0 -15 -3 -19 -8 -10 -10 15 -60 12 -66 -4 -3 -7 -14 -10 -25 -7 -29 8
-26 -11 4 -25 l25 -12 -21 -21 c-24 -24 -83 -37 -93 -20 -13 21 -36 12 -36
-14 0 -14 5 -25 11 -25 6 0 9 -17 7 -42 -2 -35 0 -43 13 -40 20 3 34 -39 17
-49 -7 -5 -4 -15 9 -33 17 -21 22 -23 27 -11 3 8 0 15 -6 15 -6 0 -8 3 -5 7 4
3 19 -6 33 -20 26 -26 26 -27 5 -27 -12 0 -24 -7 -27 -15 -4 -8 -10 -12 -15
-10 -5 3 -22 -1 -40 -10 l-31 -17 20 -21 c21 -23 19 -45 -6 -63 -18 -14 -8
-48 12 -41 9 4 12 0 9 -13 -3 -12 3 -23 19 -31 12 -7 26 -12 29 -12 14 4 -2
-62 -20 -81 -10 -12 -21 -33 -23 -48 -5 -24 -2 -28 18 -28 17 0 23 -6 26 -27
3 -24 7 -28 31 -25 22 3 30 -1 34 -17 6 -23 11 -25 32 -12 8 5 10 14 6 22 -6
9 -3 11 9 6 10 -4 21 -7 24 -7 4 0 0 -5 -8 -10 -11 -7 -11 -10 -2 -10 7 0 10
-4 7 -10 -3 -5 -15 -10 -26 -10 -10 0 -19 -5 -19 -10 0 -6 -24 -26 -52 -45
-72 -47 -88 -60 -88 -74 0 -6 10 -11 21 -11 17 0 20 -5 17 -25 -3 -14 -3 -25
0 -25 3 0 30 14 59 30 l54 31 -16 -31 c-9 -17 -13 -35 -10 -40 3 -6 2 -10 -3
-10 -10 0 -24 -33 -25 -60 -1 -8 5 -14 13 -12 8 2 19 -4 26 -13 9 -12 17 -13
38 -5 32 12 76 13 76 3 -1 -5 -18 -27 -39 -50 -33 -37 -40 -41 -51 -28 -8 9
-21 13 -36 9 -14 -4 -24 -2 -24 5 0 6 -7 8 -16 4 -13 -5 -13 -8 -2 -15 9 -7 8
-8 -5 -4 -10 3 -21 6 -23 6 -2 0 -4 8 -4 17 0 13 -3 14 -12 5 -7 -7 -19 -12
-28 -12 -13 0 -13 1 0 10 10 7 11 10 2 10 -7 0 -15 -6 -18 -14 -3 -8 -26 -17
-52 -21 -26 -3 -63 -9 -82 -12 -19 -2 -46 -12 -60 -20 -25 -16 -25 -16 -7 4 9
11 14 23 10 28 -5 4 -2 5 5 1 8 -5 12 0 12 16 0 20 -5 23 -38 24 -20 1 -40 -3
-43 -9 -4 -5 -14 -5 -27 2 -18 10 -27 6 -57 -21 -21 -18 -39 -27 -43 -22 -4 6
-15 14 -26 17 -12 5 -16 13 -11 25 4 9 9 22 12 29 2 6 -4 10 -14 10 -21 -2
-20 21 2 66 12 24 12 27 -3 29 -32 2 -67 -4 -79 -14 -16 -13 -17 -3 -3 23 11
20 -3 28 -16 8 -4 -8 -9 -7 -15 2 -6 11 -14 8 -34 -11 -19 -17 -22 -26 -13
-32 10 -6 10 -8 -1 -8 -8 0 -24 9 -36 20 -25 23 -55 18 -48 -9 2 -9 -3 -23
-11 -31 -23 -19 -55 11 -48 45 5 29 0 31 -22 9 -19 -18 -21 -38 -3 -28 8 6 8
3 -2 -9 -10 -12 -18 -14 -31 -7 -15 8 -22 5 -35 -12 -15 -22 -14 -24 15 -36
34 -14 40 -32 11 -32 -11 0 -27 -3 -36 -7 -14 -5 -16 -2 -10 15 4 14 2 22 -5
22 -6 0 -8 5 -5 10 13 20 -7 32 -25 15 -10 -9 -21 -12 -24 -7 -9 14 -56 2 -56
-15 0 -8 -5 -11 -12 -7 -8 5 -9 2 -5 -9 4 -11 1 -17 -7 -17 -21 0 -26 -23 -9
-41 12 -14 11 -17 -7 -22 -13 -3 -23 0 -26 8 -14 36 -64 22 -64 -17 0 -17 -2
-19 -16 -7 -14 11 -14 13 1 21 18 11 12 41 -14 69 -18 19 -91 54 -91 43 0 -4
-7 -1 -15 6 -18 15 -6 35 25 43 18 5 25 -4 21 -25 0 -5 8 -8 19 -8 18 0 19 3
10 20 -9 17 -7 22 12 30 13 5 17 9 10 9 -7 1 -10 6 -7 11 3 6 0 10 -8 10 -12
0 -24 21 -31 52 0 3 -4 9 -8 13 -4 4 -4 14 -1 22 5 11 1 14 -13 9 -27 -8 -45
6 -47 40 -2 24 -7 28 -25 26 -13 -2 -25 3 -28 13 -5 12 -14 14 -35 10 -25 -6
-29 -3 -29 14 0 12 -3 20 -7 20 -25 -4 -36 2 -26 12 20 20 -13 44 -42 31 -18
-9 -25 -8 -29 4 -4 10 -13 13 -31 8 -20 -5 -25 -2 -25 11 0 14 -5 12 -25 -11
-14 -16 -25 -32 -25 -36 0 -5 -4 -8 -10 -8 -5 0 -10 10 -10 21 0 19 -4 21 -30
16 -25 -6 -30 -3 -30 13 0 11 -4 20 -10 20 -5 0 -10 -9 -10 -20 0 -11 -6 -19
-12 -18 -7 2 -12 -3 -10 -9 1 -7 -4 -13 -12 -13 -8 0 -22 -3 -30 -6 -12 -5
-15 -2 -10 12 6 17 5 17 -9 -1 -13 -16 -18 -18 -28 -7 -18 17 -26 15 -32 -9
-5 -17 -11 -20 -31 -15 -14 3 -27 2 -31 -4 -3 -5 -12 -7 -19 -4 -8 3 -25 -6
-39 -20 -15 -14 -30 -26 -35 -26 -5 0 -13 -9 -18 -20 -8 -18 -11 -19 -36 -6
-25 13 -27 13 -30 -7 -2 -14 -11 -23 -25 -25 -30 -4 -29 -8 8 -39 16 -14 28
-32 25 -39 -3 -7 4 -16 15 -19 20 -7 27 -25 9 -25 -5 0 -10 4 -10 10 0 5 -13
8 -29 7 -21 -1 -27 -5 -20 -14 7 -7 6 -14 -2 -18 -8 -6 -7 -10 2 -16 10 -6 8
-9 -9 -9 -13 0 -20 4 -17 10 3 6 -1 10 -10 10 -29 0 -11 -24 33 -45 23 -11 42
-25 42 -31 0 -12 -49 -38 -85 -46 -14 -3 -5 -9 28 -18 44 -12 73 -30 47 -30
-7 0 -10 -6 -7 -14 4 -11 0 -13 -16 -11 -22 5 -57 -20 -57 -39 0 -8 2 -8 8 0
4 6 15 13 24 17 12 4 15 2 11 -8 -3 -8 -9 -13 -13 -10 -5 3 -10 0 -12 -7 -4
-10 -10 -10 -32 0 -25 11 -28 10 -33 -8 -6 -22 -30 -22 -25 -1 1 7 -2 9 -9 6
-11 -8 -49 27 -49 45 0 5 -6 10 -14 10 -22 0 -11 -58 15 -86 20 -21 20 -23 3
-22 -11 0 -34 -6 -51 -13 -30 -12 -34 -11 -47 6 -13 18 -13 20 5 23 10 2 19 8
19 13 0 6 -4 7 -10 4 -5 -3 -10 -2 -10 4 0 6 -14 25 -31 42 -23 24 -33 29 -39
19 -7 -11 -12 -10 -25 3 -19 19 -35 22 -35 6 0 -5 -6 -7 -12 -3 -9 5 -9 2 1
-9 7 -9 20 -17 27 -17 17 0 18 -16 2 -26 -6 -4 -14 -2 -16 4 -5 17 -42 15 -42
-3 0 -8 -4 -15 -10 -15 -5 0 -10 5 -10 11 0 8 -6 7 -17 -2 -13 -11 -17 -11
-20 -1 -3 6 -9 10 -14 6 -5 -3 -9 0 -9 5 0 6 4 11 8 11 5 0 9 13 9 29 0 22 -4
27 -18 24 -10 -3 -20 -11 -23 -18 -3 -8 -13 -11 -25 -8 -16 4 -19 1 -15 -15 4
-12 0 -22 -10 -25 -12 -5 -15 -14 -10 -32 6 -23 3 -25 -27 -26 -19 -1 -26 -3
-16 -6 21 -5 22 -19 2 -27 -16 -6 -69 40 -60 54 3 4 -2 10 -10 14 -8 3 -15 11
-15 18 0 11 -42 58 -51 58 -2 0 -5 -17 -6 -37 -1 -21 -7 -39 -12 -41 -6 -2
-11 -17 -11 -34 0 -30 0 -31 20 -13 11 10 20 13 20 7 0 -6 -9 -16 -20 -22 -19
-10 -20 -21 -20 -170 0 -182 -9 -167 100 -173 45 -3 40 -4 -22 -5 l-78 -2 0
-79 0 -79 78 -7 c128 -10 131 -12 25 -14 l-103 -1 0 -59 c0 -44 4 -60 16 -65
29 -11 65 -6 70 9 6 14 8 14 18 0 9 -13 17 -14 37 -7 16 6 31 6 42 1 20 -12
24 3 30 114 2 43 9 83 14 88 8 8 10 -23 8 -100 -3 -124 -6 -117 78 -125 26 -3
51 -8 57 -11 13 -8 24 20 15 35 -5 8 -13 6 -26 -6 -11 -10 -19 -12 -19 -6 0 7
-16 12 -36 12 l-37 0 6 110 5 110 -26 1 c-15 0 -36 4 -47 9 -15 6 -6 9 33 9
50 1 52 2 52 30 0 48 12 121 21 121 4 0 6 -18 5 -41 -3 -34 0 -42 18 -49 21
-9 21 -9 -1 -9 -22 -1 -23 -5 -23 -72 0 -45 4 -68 10 -64 6 4 7 11 4 17 -5 7
-1 9 9 5 10 -3 17 -2 17 2 0 5 -6 12 -12 14 -8 3 -6 6 5 6 18 1 25 31 6 31 -5
0 -7 5 -4 11 11 17 18 1 21 -47 2 -26 5 -48 8 -51 7 -8 55 -11 194 -14 108 -3
135 0 142 11 6 8 10 49 11 90 0 76 17 149 18 83 1 -21 7 -33 18 -36 10 -2 8
-3 -4 -2 -22 2 -23 -1 -23 -71 0 -70 9 -90 26 -62 5 7 9 21 9 31 2 25 19 39
39 31 15 -6 15 -7 -1 -19 -10 -7 -22 -11 -28 -7 -5 3 -4 -2 3 -11 17 -20 8
-52 -15 -55 -10 0 -38 -3 -63 -5 -51 -5 -80 -15 -80 -28 0 -5 -5 -9 -12 -9 -6
0 -3 9 7 20 17 19 17 20 0 20 -10 0 -28 -8 -39 -18 -20 -16 -20 -16 -7 1 12
15 11 17 -10 18 -13 0 -40 2 -59 4 -19 1 -61 3 -94 4 -47 1 -57 4 -52 16 3 9
0 15 -8 15 -8 0 -13 -8 -12 -17 1 -11 -7 -17 -21 -18 -13 0 -23 -3 -23 -7 0
-5 0 -12 0 -18 0 -5 9 -10 20 -10 12 0 20 -6 19 -12 -3 -25 1 -38 12 -38 6 0
8 13 5 30 -2 17 0 28 5 24 5 -3 9 -19 9 -36 0 -27 3 -30 24 -24 13 3 38 3 56
0 27 -6 31 -10 26 -30 -5 -18 -3 -22 8 -18 8 3 16 14 19 25 5 18 9 19 27 9 16
-8 25 -8 35 0 7 6 17 10 21 8 18 -4 54 14 54 28 0 18 14 18 30 -1 11 -13 10
-14 -4 -9 -9 3 -16 1 -16 -5 0 -6 5 -11 12 -11 9 0 9 -3 0 -12 -20 -20 -14
-30 16 -26 15 2 27 8 27 15 0 6 3 15 7 19 5 4 8 0 8 -9 0 -17 10 -21 43 -18
11 2 17 -5 17 -18 0 -24 -36 -36 -80 -27 -21 4 -32 1 -38 -10 -8 -15 -12 -15
-33 -2 -13 8 -35 13 -49 12 -71 -9 -189 -10 -184 -3 3 5 0 9 -5 9 -6 0 -11 -4
-11 -8 0 -5 -37 -9 -82 -8 -71 0 -83 -2 -80 -16 2 -12 -3 -15 -18 -11 -11 3
-23 9 -26 14 -7 12 -44 11 -44 -1 0 -5 -7 -7 -16 -3 -9 3 -20 0 -25 -8 -6 -10
-9 -10 -9 -1 0 7 -14 12 -35 12 l-35 0 0 -55 c0 -30 3 -54 8 -54 29 5 72 -3
69 -12 -1 -6 3 -13 10 -16 8 -3 11 3 8 16 -2 11 0 23 6 26 5 4 9 -3 9 -14 0
-12 5 -21 10 -21 6 0 10 4 10 9 0 5 10 11 23 14 20 6 21 5 4 -8 -12 -9 -15
-15 -7 -20 6 -4 19 0 29 9 14 13 33 16 80 13 34 -2 66 -8 72 -14 17 -17 47 -4
42 17 -3 10 0 21 6 24 6 4 11 16 11 27 0 21 15 26 26 8 3 -6 1 -15 -6 -19 -8
-5 -10 -15 -6 -26 6 -15 9 -16 16 -5 11 18 60 22 53 4 -3 -7 2 -13 10 -13 8 0
17 6 19 12 3 9 10 8 23 -5 11 -12 21 -15 27 -9 13 13 2 31 -26 43 -18 8 -16 9
9 4 24 -4 27 -3 12 5 -21 13 -22 30 -3 30 8 0 27 -16 42 -35 23 -31 32 -35 68
-35 79 1 91 0 123 -15 71 -34 52 -56 -52 -61 -41 -2 -84 -8 -95 -14 -11 -6
-25 -8 -31 -5 -10 7 -65 13 -132 14 -35 1 -37 2 -26 22 7 13 17 19 29 16 11
-3 21 1 24 10 4 11 2 13 -9 9 -8 -3 -15 -1 -15 4 0 18 -32 10 -62 -15 l-30
-25 24 -9 c20 -8 21 -10 5 -16 -9 -4 -24 -2 -31 4 -10 9 -16 9 -21 1 -6 -10
-49 -9 -198 2 -20 2 -37 0 -37 -4 0 -3 -21 -6 -47 -6 -27 0 -54 -1 -60 -1 -8
-1 -13 -16 -13 -43 1 -40 4 -44 37 -60 29 -14 39 -15 45 -5 5 8 8 7 8 -5 0
-11 5 -15 14 -12 15 6 46 -21 46 -41 0 -8 12 -13 35 -12 19 1 35 5 35 10 0 4
-5 5 -11 2 -6 -4 -5 2 2 13 14 23 46 35 63 24 6 -3 21 -5 33 -4 13 2 30 -5 40
-17 19 -23 39 -27 45 -9 6 16 48 21 65 7 10 -9 16 -9 26 3 17 22 60 31 141 31
47 0 71 -5 77 -14 7 -11 9 -11 9 -1 0 10 9 12 31 7 20 -5 29 -3 25 3 -27 44
165 53 195 9 9 -12 99 -18 99 -6 0 5 7 9 14 9 8 0 28 14 45 32 24 26 32 29 44
19 8 -6 19 -11 23 -10 26 4 53 -3 71 -20 19 -18 23 -18 42 -5 11 8 41 14 68
14 75 -1 86 0 101 13 11 9 17 7 27 -6 9 -12 14 -14 17 -6 3 8 51 12 164 13 88
1 165 6 172 10 7 4 12 2 12 -5 0 -7 10 -9 25 -7 13 3 26 1 27 -3 2 -5 13 -10
25 -12 12 -2 26 -6 29 -10 10 -10 24 -9 24 2 0 5 -7 16 -15 24 -12 13 -12 16
7 21 12 3 24 3 27 1 2 -3 -1 -5 -7 -5 -7 0 -12 -4 -12 -8 0 -11 41 -7 72 8 22
10 30 11 43 0 9 -7 15 -8 15 -2 0 17 61 34 76 21 7 -6 18 -8 24 -4 5 3 10 1
10 -4 0 -15 37 -14 43 2 4 8 8 8 14 2 11 -14 45 -13 61 2 10 9 19 10 38 1 20
-10 27 -9 35 3 8 12 10 12 19 -1 7 -12 10 -12 10 -1 0 8 6 11 15 7 8 -3 21 -9
29 -12 11 -4 13 0 9 18 -6 21 -5 22 10 9 13 -10 20 -11 30 -2 8 6 34 8 65 5
32 -3 52 -2 52 5 0 10 -32 24 -65 27 -11 1 -40 5 -65 9 -25 3 -73 7 -107 7
-35 0 -63 4 -63 9 0 5 -7 6 -15 2 -9 -3 -15 -2 -13 3 2 5 -1 9 -7 9 -5 0 -9
-6 -9 -12 2 -15 -22 -18 -28 -4 -1 5 -18 6 -35 4 -18 -3 -31 -9 -28 -13 2 -4
-8 -8 -23 -8 -176 -6 -232 -6 -232 2 0 5 -6 3 -13 -3 -8 -6 -17 -8 -20 -4 -4
3 -62 5 -129 3 -68 -1 -141 -2 -163 -1 -22 1 -74 3 -117 4 -42 1 -80 5 -84 9
-4 4 -13 3 -21 -4 -8 -6 -48 -10 -96 -10 -115 2 -213 -10 -210 -26 2 -6 -2
-12 -7 -12 -6 0 -10 7 -10 15 0 12 -17 14 -107 11 -118 -4 -159 4 -149 30 4 9
1 23 -6 31 -10 12 -7 13 15 8 19 -5 27 -3 27 6 0 10 2 11 8 2 7 -12 62 -6 62
7 0 4 15 6 33 5 17 -1 35 2 38 8 11 15 57 -1 64 -23 11 -35 75 -37 75 -1 0 12
2 13 8 3 13 -19 250 -12 262 8 8 12 10 12 10 1 0 -7 6 -11 15 -8 8 4 17 2 20
-3 7 -11 230 -12 290 -2 39 7 40 9 54 63 17 68 11 89 -27 89 -16 0 -32 -3 -35
-6 -4 -4 -57 -8 -119 -10 -169 -4 -179 -4 -200 7 -10 5 -23 7 -28 4 -6 -4 -35
-6 -65 -6 -31 0 -53 -4 -51 -8 3 -4 -1 -8 -9 -8 -8 0 -15 4 -15 9 0 5 -5 6
-10 3 -6 -4 -8 -16 -4 -27 4 -14 2 -18 -5 -14 -6 4 -11 13 -11 19 0 13 -68 17
-87 4 -6 -4 -14 -3 -18 3 -3 5 -11 10 -16 10 -6 0 -8 -3 -6 -7 3 -5 -16 -7
-41 -7 -26 1 -53 -3 -59 -8 -9 -7 -13 -7 -13 0 0 6 -6 9 -14 6 -7 -3 -16 2
-19 10 -4 9 -12 16 -19 16 -9 0 -9 -3 0 -12 16 -16 15 -29 0 -23 -7 3 -29 6
-48 8 -29 2 -34 6 -32 23 1 11 -7 29 -18 39 -28 25 -25 36 8 30 100 -18 105
-18 99 -1 -8 19 -3 20 22 4 23 -14 51 -4 58 22 3 11 12 20 20 20 10 0 13 9 11
28 -3 24 -7 27 -46 30 -23 2 -42 0 -41 -5 5 -29 -3 -34 -21 -13 -18 21 -23 22
-45 10 -18 -10 -28 -10 -38 -2 -8 7 -16 11 -18 9 -2 -1 -2 1 1 5 3 4 15 9 27
11 11 1 28 9 37 16 13 11 18 10 31 -3 13 -13 21 -14 38 -4 12 6 26 16 30 22 5
7 7 3 5 -8 -2 -14 3 -19 24 -20 26 -2 27 -1 33 81 4 46 11 86 16 89 11 7 11
-166 0 -223 -7 -34 -5 -43 5 -43 8 0 14 -11 14 -26 0 -21 4 -25 23 -22 12 2
23 10 23 18 1 8 2 20 3 26 1 14 44 11 49 -4 6 -19 23 -14 20 5 -2 13 4 17 22
18 16 0 25 -6 25 -15 0 -8 7 -20 15 -26 17 -14 60 9 60 33 0 20 41 -3 47 -28
7 -25 23 -25 23 0 0 10 7 21 15 25 13 4 13 2 5 -14 -15 -27 -13 -33 10 -27 11
3 20 2 20 -2 0 -4 47 -9 104 -10 113 -2 112 -3 111 59 0 35 0 35 -55 41 -63 7
-49 11 28 9 33 -1 52 3 52 10 0 6 -5 8 -11 4 -9 -5 -10 1 -4 22 5 16 8 38 8
50 0 11 5 21 11 21 14 0 9 -120 -5 -125 -16 -6 -10 -22 9 -22 16 -1 16 -1 0
-14 -10 -7 -18 -21 -18 -30 0 -19 16 -22 23 -3 3 7 6 6 6 -5 1 -9 5 -19 10
-22 15 -9 42 5 34 18 -3 6 3 3 14 -6 23 -21 49 -23 57 -5 3 6 3 0 0 -15 -4
-19 -2 -28 6 -28 10 0 11 -17 6 -70 l-6 -70 33 0 c41 0 57 15 57 55 0 38 14
60 30 50 10 -6 9 -10 -4 -17 -23 -13 -20 -27 10 -55 23 -21 30 -23 57 -14 17
6 35 7 41 2 16 -12 77 -5 87 11 7 11 9 11 9 0 0 -11 17 -12 81 -8 91 7 99 9
99 37 0 10 5 19 11 19 5 0 7 -4 4 -10 -8 -13 9 -43 26 -46 8 -1 32 -6 55 -12
22 -5 55 -7 72 -4 20 2 32 0 32 -7 0 -6 5 -11 11 -11 5 0 7 5 4 10 -3 6 1 10
10 10 9 0 14 -4 11 -9 -15 -24 75 -48 204 -55 30 -2 65 -4 78 -5 14 -1 22 -7
22 -20 0 -15 5 -18 23 -14 12 3 28 11 36 17 12 9 14 8 9 -4 -5 -13 1 -15 28
-12 30 4 33 2 28 -14 -4 -14 -3 -16 4 -5 5 7 7 22 4 34 -3 12 -1 18 5 14 5 -3
43 -7 84 -8 41 -1 82 -6 93 -12 26 -13 135 -12 149 2 8 8 7 11 -5 11 -9 0 -20
5 -24 12 -5 8 -2 9 12 4 16 -6 16 -4 -4 17 -12 13 -22 29 -22 35 0 14 36 16
44 3 8 -13 56 -20 62 -9 3 5 12 7 19 4 7 -2 18 1 24 7 8 8 11 7 11 -6 0 -10
-8 -17 -20 -17 -20 0 -26 -11 -13 -23 3 -4 11 -3 17 2 19 14 45 20 51 11 3 -4
-18 -16 -47 -26 -35 -11 -53 -13 -56 -6 -2 6 -9 9 -17 6 -20 -8 -7 -34 17 -34
10 0 17 -4 14 -8 -7 -12 48 -8 62 5 6 6 12 14 12 18 0 3 -6 3 -12 -1 -9 -5
-10 -4 -3 4 6 6 32 13 58 16 27 2 57 12 67 21 17 15 19 15 24 -3 4 -11 5 -25
4 -32 -2 -7 3 -15 11 -18 8 -3 11 0 7 7 -4 6 -2 11 4 11 7 0 10 6 7 13 -6 17
54 10 65 -7 5 -7 8 -3 8 9 0 17 2 17 10 5 9 -13 11 -13 19 -1 8 12 12 12 25 2
8 -7 12 -19 9 -28 -3 -8 0 -19 8 -24 20 -12 27 13 28 97 1 60 4 74 24 92 13
12 27 22 30 22 12 0 -4 -103 -19 -125 -8 -11 -14 -34 -14 -52 0 -26 4 -33 20
-33 17 0 19 5 15 30 -4 22 -1 30 10 30 8 0 15 -4 15 -10 0 -5 5 -10 11 -10 5
0 7 5 4 10 -10 16 37 11 56 -6 14 -13 22 -13 39 -4 13 7 20 8 16 2 -4 -6 2
-10 14 -9 20 1 29 17 10 17 -5 0 -7 7 -4 15 4 8 10 15 16 15 5 0 7 -4 4 -9 -4
-5 -3 -17 0 -26 5 -13 14 -15 40 -11 28 6 35 3 53 -22 14 -20 27 -28 43 -26
13 1 27 3 31 3 21 2 -8 21 -32 21 -21 0 -30 6 -34 21 -4 16 -3 18 8 9 13 -10
83 -16 307 -23 l67 -2 -2 29 c-1 17 3 30 11 32 7 1 8 0 2 -3 -5 -2 -10 -9 -10
-14 0 -6 4 -8 9 -4 6 3 13 -15 16 -40 l7 -45 44 0 c24 0 44 5 44 10 0 6 -5 10
-11 10 -5 0 -8 4 -4 10 9 14 37 0 31 -16 -4 -9 2 -14 15 -14 11 0 17 5 14 10
-3 6 -2 10 4 10 5 0 13 -4 16 -10 3 -5 11 -10 17 -10 7 0 6 6 -2 15 -9 10 -9
15 -1 15 6 0 14 0 19 0 4 0 8 -4 8 -10 1 -5 2 -14 3 -20 0 -5 15 -10 32 -10
24 0 30 4 25 15 -3 8 -1 15 5 15 5 0 7 11 3 25 -4 16 -2 25 6 25 7 0 11 -15 9
-45 -2 -24 1 -48 6 -52 4 -4 5 -2 1 5 -5 8 1 12 18 12 13 0 33 3 43 6 15 5 15
4 3 -5 -8 -5 -11 -13 -7 -17 3 -4 13 -2 20 5 18 14 48 4 41 -14 -3 -8 -12 -11
-19 -9 -7 3 -15 1 -19 -4 -3 -4 13 -8 34 -7 39 1 53 -8 28 -18 -10 -4 -10 -7
0 -18 9 -9 12 -10 12 -1 0 7 7 12 15 12 8 0 15 -4 15 -9 0 -5 10 -11 21 -14
15 -4 20 -11 15 -22 -3 -9 -2 -13 4 -10 6 4 10 66 10 151 l0 144 -25 -6 c-16
-4 -25 -2 -25 5 0 19 30 71 40 71 6 0 10 86 10 226 0 147 -3 223 -10 219 -5
-3 -10 -1 -10 5 0 6 -4 9 -9 6 -5 -4 -4 5 2 19 10 21 13 22 19 7 5 -14 7 -13
7 5 1 15 -6 23 -21 25 -17 2 -23 10 -23 30 -1 15 2 25 6 22 4 -2 14 7 23 21
13 20 16 59 16 239 0 215 0 215 -22 219 l-23 4 23 2 c22 1 22 1 22 185 0 138
-3 186 -12 189 -10 4 -9 8 2 16 16 11 15 12 -23 29 -39 17 -55 15 -31 -4 18
-15 18 -15 -3 -4 -15 7 -20 16 -16 28 6 15 5 15 -10 3 -9 -7 -17 -9 -17 -3 0
13 26 23 45 16 11 -4 13 -2 9 9 -3 8 0 18 6 22 6 3 9 1 8 -6 -2 -7 7 -14 19
-15 22 -1 22 0 22 147 0 141 -1 149 -19 150 -11 1 -24 3 -30 4 -5 1 -17 3 -26
4 -8 0 -13 5 -9 11 4 6 15 6 30 0 53 -20 53 -21 54 277 1 190 -3 280 -10 290
-9 9 -9 13 0 13 8 0 11 68 11 238 0 143 -4 231 -9 223 -5 -8 -7 -28 -4 -46 4
-26 0 -34 -20 -48 -23 -15 -26 -15 -31 0 -5 12 -9 13 -20 4 -10 -8 -16 -9 -21
-1 -3 6 -11 7 -17 4 -5 -4 -2 6 7 20 10 15 24 25 31 22 8 -3 11 0 7 9 -3 8 2
18 11 21 19 7 21 30 4 38 -7 4 5 4 27 1 28 -3 36 -2 25 5 -13 8 -13 11 -1 19
8 5 -136 9 -355 10 -202 1 -365 -1 -361 -5 8 -8 -10 -44 -23 -44 -5 0 -10 10
-12 23 -3 21 -7 22 -131 25 -139 3 -143 2 -166 -55 -7 -18 -17 -31 -21 -30 -4
1 -17 -9 -30 -23 -12 -14 -20 -18 -17 -10 5 18 -14 38 -31 32 -14 -4 -17 25
-3 30 5 2 -2 12 -16 22 l-26 19 7 -27 c4 -18 3 -25 -4 -21 -5 3 -16 3 -22 -2
-23 -13 -58 -11 -58 5 0 8 6 12 15 8 17 -6 21 9 5 19 -6 4 -8 12 -4 18 3 7 -3
1 -14 -12 l-19 -24 -7 27 c-6 23 -11 26 -51 26 -25 0 -45 -4 -45 -10z m-391
-1830 c4 0 16 7 27 15 22 17 43 20 27 4 -13 -13 4 -62 18 -53 5 3 9 0 9 -5 0
-14 -13 -14 -28 1 -9 9 -18 6 -40 -15 -15 -15 -34 -27 -41 -27 -7 0 -10 -4 -6
-9 3 -6 -3 -15 -14 -20 -10 -6 -22 -22 -25 -36 -4 -14 -13 -25 -22 -25 -9 0
-14 6 -11 13 2 6 10 11 16 9 7 -1 9 2 6 8 -4 6 -14 10 -23 8 -10 -2 -24 3 -33
10 -22 19 -3 70 28 78 15 4 23 14 23 26 0 17 5 20 29 15 24 -5 30 -2 36 16 6
19 8 19 12 5 2 -10 8 -18 12 -18z m-824 -527 c-4 -98 -9 -194 -10 -213 -9 -94
-13 -205 -8 -217 3 -7 16 -13 29 -13 18 0 24 6 24 21 0 11 5 17 10 14 6 -4 8
-10 5 -15 -3 -5 -1 -11 5 -15 5 -3 10 2 10 13 0 27 27 23 33 -5 2 -12 0 -23
-5 -23 -5 0 -6 -4 -3 -10 3 -5 1 -10 -4 -10 -6 0 -11 5 -11 10 0 15 -89 7 -95
-7 -2 -7 -10 -13 -16 -13 -9 0 -10 35 -5 132 4 72 9 134 10 137 2 3 7 83 10
176 4 94 10 180 13 193 13 54 15 10 8 -155z m-460 -313 c-6 -123 -5 -139 8
-134 9 3 24 1 35 -5 15 -8 21 -8 24 1 7 19 30 -3 25 -23 -3 -11 0 -19 6 -19 6
0 7 -3 3 -7 -9 -9 -76 -12 -76 -4 0 3 -26 6 -57 6 l-58 0 -2 40 c-1 22 1 32 4
23 8 -29 31 -21 41 15 29 94 36 138 23 146 -10 6 -9 10 3 14 11 4 16 19 16 47
0 22 3 40 6 40 3 0 2 -63 -1 -140z m188 -6 c27 -6 27 -7 27 -91 l0 -85 -25 4
c-14 3 -25 2 -25 -2 0 -12 -49 -18 -53 -7 -6 19 15 152 26 159 7 4 6 12 -4 24
-12 15 -12 16 6 11 11 -3 32 -9 48 -13z"/>
<path d="M3976 1888 c4 -6 -1 -17 -11 -24 -15 -12 -20 -11 -31 4 -12 15 -13
13 -11 -15 1 -18 6 -33 10 -33 5 0 6 -4 3 -9 -3 -5 7 -21 22 -37 15 -15 21
-24 15 -20 -7 4 -18 4 -23 1 -15 -9 9 -37 27 -31 7 3 13 1 13 -5 0 -15 -33
-24 -38 -11 -2 7 -15 12 -28 12 -17 0 -24 -6 -24 -20 0 -11 -4 -20 -10 -20
-15 0 -12 11 11 54 11 21 18 41 15 44 -3 3 -6 0 -6 -6 0 -7 -6 -12 -14 -12 -8
0 -16 -5 -18 -12 -3 -7 -12 -3 -25 11 -15 16 -23 19 -28 11 -4 -7 -4 -15 1
-19 5 -3 15 -16 22 -28 11 -21 10 -23 -9 -23 -14 0 -19 5 -16 14 3 8 -5 26
-19 41 -21 23 -26 23 -23 -1 0 -4 -5 -11 -13 -15 -10 -7 -9 -9 4 -9 9 0 19 -4
22 -9 4 -5 -3 -7 -14 -4 -18 5 -19 2 -14 -28 5 -26 4 -31 -5 -23 -7 6 -13 21
-14 34 -1 13 -16 32 -37 46 -36 25 -56 31 -45 15 9 -15 -15 -24 -30 -11 -8 7
-20 8 -27 4 -13 -9 -18 -10 -38 -13 -5 0 -1 -10 10 -21 16 -16 25 -18 45 -10
14 5 32 7 42 3 11 -4 14 -3 9 5 -4 7 -3 12 3 12 5 0 11 -5 13 -11 2 -5 12 -11
23 -13 29 -4 29 -23 1 -23 -15 0 -23 4 -19 10 4 7 -12 8 -46 3 -35 -5 -58 -3
-67 5 -10 8 -14 9 -14 0 0 -13 48 -35 68 -32 6 1 12 -3 12 -10 0 -8 -12 -10
-35 -6 -20 3 -33 2 -30 -3 7 -12 -15 -24 -25 -14 -5 5 -10 20 -12 34 -5 39
-15 47 -47 42 -17 -2 -28 -8 -25 -14 3 -5 20 -6 37 -3 26 6 30 5 20 -5 -9 -10
-9 -19 -1 -34 9 -17 8 -19 -3 -8 -7 6 -23 12 -36 12 -14 0 -23 6 -23 15 0 8
-9 15 -20 15 -27 0 -25 -14 5 -30 14 -7 25 -17 25 -22 0 -12 -10 -10 -28 8
-10 11 -17 13 -20 5 -5 -15 -23 -14 -20 1 2 6 -5 14 -16 16 -12 3 -16 0 -11
-8 5 -9 1 -10 -13 -6 -29 10 -101 -31 -85 -48 4 -3 2 -6 -3 -6 -6 0 -15 5 -22
12 -9 9 -12 9 -13 -2 0 -8 -5 -4 -10 9 -12 31 7 56 22 29 6 -10 15 -18 20 -18
6 0 8 4 5 9 -6 9 22 26 37 23 18 -4 5 9 -18 18 -14 5 -25 13 -24 17 4 26 -15
53 -37 53 -13 0 -24 -4 -24 -9 0 -5 -17 -12 -37 -16 -21 -4 -32 -10 -25 -12 6
-3 12 -11 12 -19 0 -14 8 -17 41 -17 14 0 18 -14 9 -37 -1 -3 -2 -8 -2 -11 1
-8 -67 6 -75 15 -4 3 7 6 23 7 28 0 29 0 5 10 -30 12 -57 -6 -40 -27 9 -11 8
-14 -4 -14 -11 0 -14 -5 -10 -16 4 -12 2 -15 -8 -12 -8 3 -14 13 -14 24 0 10
-6 20 -12 20 -7 1 -18 2 -24 3 -5 0 -7 6 -3 12 3 6 1 15 -7 19 -10 7 -10 11 0
23 7 9 8 18 3 21 -6 3 -13 -1 -16 -9 -3 -8 -9 -15 -13 -14 -30 5 -40 -2 -35
-26 2 -14 8 -23 12 -20 4 3 7 -3 6 -13 -1 -14 6 -16 37 -14 20 2 37 -2 37 -7
0 -15 -18 -23 -25 -11 -8 13 -35 -11 -27 -25 3 -5 -2 -4 -11 4 -10 8 -41 15
-70 15 -31 1 -52 6 -52 13 0 6 -3 15 -7 19 -5 4 -8 15 -8 25 0 21 -20 29 -54
23 -26 -4 -38 7 -40 39 -1 22 -42 42 -52 25 -4 -7 -9 -6 -14 2 -5 7 -9 0 -12
-20 -3 -19 1 -37 9 -45 17 -18 17 -25 -2 -25 -8 0 -15 -4 -15 -10 0 -5 5 -10
10 -10 6 0 10 -5 10 -12 0 -6 -7 -4 -18 5 -10 10 -24 17 -30 17 -6 0 -15 8
-21 18 -5 9 -20 17 -33 17 -13 0 -24 6 -24 13 -1 6 -2 16 -3 21 0 5 -8 12 -17
15 -13 5 -15 1 -10 -19 4 -14 2 -25 -3 -25 -18 0 0 -28 20 -33 11 -3 23 -15
26 -26 5 -21 23 -29 23 -11 0 6 6 10 14 10 9 0 12 -7 9 -20 -3 -11 0 -20 6
-20 6 0 11 7 11 15 0 17 16 20 25 5 3 -5 13 -6 22 -3 11 4 14 2 11 -8 -3 -8
-14 -13 -26 -12 -12 2 -22 -5 -25 -17 -7 -26 -23 -26 -30 0 -4 17 -11 19 -31
14 -21 -5 -25 -3 -20 10 3 9 1 16 -5 16 -6 0 -11 -5 -11 -11 0 -8 -5 -7 -15 1
-19 16 -32 5 -17 -13 14 -16 6 -27 -20 -27 -10 0 -18 -4 -18 -10 0 -17 -28 1
-33 21 -4 13 0 19 11 19 13 0 11 5 -8 20 -20 16 -22 20 -7 20 20 0 21 9 3 32
-9 13 -16 14 -24 6 -8 -8 -15 -6 -28 6 -14 14 -19 15 -25 4 -8 -11 -11 -11
-18 1 -6 10 -10 10 -16 1 -4 -7 4 -23 19 -39 14 -15 26 -31 26 -35 0 -5 7 -14
17 -21 11 -8 14 -18 8 -31 -4 -12 -9 -14 -12 -7 -6 16 -33 5 -33 -13 0 -8 -4
-14 -10 -14 -5 0 -10 9 -10 21 0 12 -5 19 -12 16 -20 -7 -66 24 -72 47 -5 21
-5 21 12 0 9 -12 29 -24 45 -26 31 -6 37 7 7 17 -13 4 -19 14 -17 28 3 30 -47
37 -62 9 -6 -11 -7 -23 -3 -27 4 -4 -2 -3 -13 2 -11 6 -39 13 -63 17 -40 6
-42 5 -30 -14 7 -10 19 -21 28 -24 12 -3 12 -4 -1 -5 -9 0 -27 10 -40 23 -18
19 -27 22 -37 14 -11 -9 -12 -6 -8 18 4 16 3 23 0 17 -3 -7 -12 -13 -20 -13
-14 0 -14 -45 0 -68 5 -8 1 -10 -8 -6 -9 3 -16 9 -16 13 0 13 -41 51 -50 46
-4 -3 -7 9 -6 25 1 17 -1 30 -6 30 -4 0 -8 -9 -8 -19 0 -31 -11 -51 -27 -51
-12 0 -10 -4 5 -17 25 -22 39 -85 17 -76 -8 3 -15 14 -15 24 0 10 -7 19 -15
19 -8 0 -15 7 -15 16 0 17 -66 84 -75 76 -3 -3 -5 3 -5 13 0 13 -3 15 -13 7
-10 -9 -17 -6 -27 8 -8 11 -22 20 -31 20 -9 0 -19 7 -23 15 -3 8 -11 15 -17
15 -7 0 0 -11 15 -25 15 -14 24 -25 20 -25 -3 0 -1 -7 6 -15 7 -8 17 -12 23
-8 6 4 8 0 4 -11 -9 -22 13 -56 36 -56 9 0 25 -4 35 -9 9 -5 25 -12 35 -15 23
-7 16 -32 -8 -29 -35 3 -64 -15 -60 -36 3 -18 1 -19 -16 -8 -10 6 -17 18 -14
24 2 7 1 12 -3 11 -16 -3 -44 16 -52 36 -8 18 -9 16 -9 -12 -1 -22 -5 -31 -12
-26 -8 4 -9 -1 -4 -17 6 -20 5 -22 -6 -11 -14 13 -33 17 -26 5 3 -5 1 -18 -4
-30 -8 -23 -43 -28 -66 -10 -9 6 -13 5 -13 -2 0 -8 -5 -7 -15 3 -20 19 -19 30
1 22 8 -3 22 1 30 9 14 13 14 15 0 15 -9 0 -16 -4 -16 -9 0 -13 -34 -8 -43 7
-4 6 -16 12 -26 12 -9 0 -27 9 -39 20 -12 11 -28 20 -37 20 -8 0 -15 5 -15 10
0 6 -6 10 -12 8 -7 -1 -24 4 -38 12 -14 8 -43 20 -65 27 -22 6 -32 11 -22 12
11 1 17 9 17 26 0 22 -4 25 -36 25 -21 0 -33 -4 -29 -10 4 -6 12 -8 18 -4 7 3
4 -1 -5 -9 -10 -8 -14 -18 -10 -22 4 -5 -1 -5 -11 -2 -20 7 -23 -6 -4 -21 18
-15 67 -26 67 -14 0 5 16 2 35 -6 19 -9 35 -20 35 -25 0 -4 -4 -6 -9 -2 -6 3
-14 -2 -19 -11 -10 -19 -32 -11 -32 12 0 19 -29 18 -36 -1 -4 -8 -17 -15 -30
-15 -15 0 -24 6 -24 15 0 9 -9 15 -25 15 -22 0 -25 -3 -19 -25 5 -19 2 -25
-10 -25 -9 0 -16 -5 -16 -11 0 -8 -5 -8 -15 1 -13 10 -15 9 -15 -9 0 -13 7
-29 15 -38 21 -20 14 -38 -16 -40 l-24 -2 25 7 24 8 -22 15 c-16 11 -20 22
-16 34 5 12 4 16 -4 11 -6 -3 -15 1 -20 10 -13 24 -68 15 -64 -10 2 -11 -4
-26 -14 -33 -16 -12 -16 -13 -1 -13 9 0 17 5 17 11 0 5 5 7 10 4 6 -4 8 -11 5
-16 -4 -5 1 -9 9 -9 8 0 18 -5 21 -10 4 -7 -2 -9 -19 -4 -16 4 -32 1 -41 -6
-14 -11 -19 -7 -16 13 0 4 -4 7 -10 7 -6 0 -8 8 -4 19 9 29 -4 49 -41 61 -19
6 -34 18 -34 26 0 18 -18 18 -37 -1 -8 -8 -20 -12 -26 -8 -7 4 -6 -1 2 -10 8
-10 23 -16 35 -15 13 2 21 -3 21 -12 0 -17 -41 -15 -64 3 -12 10 -13 9 -8 -6
4 -11 1 -20 -9 -24 -11 -4 -8 -9 13 -20 17 -9 29 -10 31 -4 2 6 14 4 29 -6 25
-17 25 -17 19 5 -5 15 -3 22 6 22 15 -1 48 -24 48 -35 0 -4 -6 -2 -14 4 -12
10 -18 6 -32 -24 -9 -20 -20 -32 -23 -27 -9 14 -55 36 -68 34 -8 -2 -10 3 -7
13 5 11 2 14 -10 9 -9 -3 -15 -11 -14 -18 2 -6 -2 -12 -7 -13 -6 -2 -11 2 -11
7 -1 6 -2 15 -3 21 -1 7 -12 9 -28 5 -26 -5 -27 -5 -5 6 25 12 29 28 8 28 -7
0 -20 8 -27 18 -13 15 -12 16 3 4 30 -23 96 11 84 44 -3 8 1 17 9 20 20 8 19
26 -1 22 -10 -2 -19 2 -21 8 -2 7 10 14 27 16 31 5 51 -6 28 -15 -10 -4 -10
-7 0 -18 11 -12 14 -12 21 0 5 8 17 11 28 7 12 -4 28 1 41 12 l21 19 -36 11
c-20 6 -40 9 -44 7 -10 -7 -19 22 -13 40 7 16 34 21 34 6 0 -5 13 -13 28 -19
23 -8 31 -6 40 7 11 14 12 13 7 -6 -5 -18 -1 -24 19 -29 13 -3 32 -14 42 -25
17 -18 16 -20 -2 -34 -10 -8 -17 -15 -14 -16 3 0 19 -3 37 -5 27 -4 32 -2 30
16 -1 11 -8 20 -16 20 -12 0 -12 3 -3 12 17 17 15 31 -3 24 -9 -3 -15 0 -15 9
0 26 -2 30 -34 53 -17 13 -31 28 -31 35 0 6 -8 13 -19 15 -13 3 -16 0 -10 -10
10 -15 15 -43 7 -34 -3 3 -14 1 -25 -5 -15 -8 -24 -7 -37 5 -16 14 -21 14 -59
-1 -37 -14 -58 -43 -32 -43 6 0 10 -7 10 -15 0 -12 -23 -21 -33 -12 -1 1 -13
-8 -26 -20 -15 -14 -21 -28 -17 -38 5 -14 0 -16 -27 -14 -18 2 -44 -5 -60 -15
-19 -13 -38 -17 -62 -13 -19 3 -35 3 -35 -1 0 -11 51 -32 77 -32 13 0 23 -4
23 -9 0 -5 9 -7 20 -4 14 4 20 0 20 -12 0 -12 -6 -16 -20 -12 -14 3 -18 1 -13
-6 4 -7 6 -20 5 -29 -4 -23 7 -23 24 -1 7 10 16 15 20 11 4 -4 2 -13 -4 -20
-8 -10 -5 -13 14 -13 13 0 24 5 24 10 0 6 5 3 10 -5 5 -8 9 -22 9 -30 0 -10
-2 -11 -6 -2 -7 17 -81 15 -100 -4 -9 -8 -21 -13 -29 -10 -7 3 -14 0 -16 -6
-2 -6 -10 -8 -16 -4 -7 4 -10 16 -7 27 4 11 2 19 -4 19 -6 0 -11 -4 -11 -10 0
-5 -4 -10 -10 -10 -16 0 -12 22 8 36 16 12 15 13 -8 22 l-25 9 23 7 c39 13 21
39 -36 51 -18 3 -30 11 -27 16 4 5 -6 15 -21 21 -20 9 -28 10 -31 1 -2 -6 -13
-9 -23 -6 -14 4 -20 0 -20 -11 0 -19 -11 -21 -28 -4 -9 9 -7 14 6 24 16 13 16
13 0 14 -10 0 -18 5 -18 11 0 5 -4 8 -9 5 -15 -10 -41 5 -41 22 0 12 -5 11
-23 -6 -14 -14 -33 -21 -52 -19 -20 1 -29 -2 -28 -10 4 -16 1 -16 -32 -1 -19
9 -28 9 -37 0 -9 -9 -9 -12 2 -12 12 0 13 -2 2 -9 -9 -5 -28 -2 -50 9 -20 10
-40 16 -45 13 -4 -2 -6 1 -5 9 2 8 -5 12 -20 10 -17 -1 -25 4 -29 18 -6 22
-11 24 -32 11 -12 -8 -12 -12 2 -26 21 -20 22 -29 2 -21 -13 4 -15 -9 -15 -85
0 -63 3 -88 11 -83 7 4 9 0 6 -12 -7 -23 -16 -74 -10 -57 7 20 36 24 52 8 14
-13 14 -15 -2 -15 -15 0 -14 -4 7 -24 17 -15 43 -25 78 -29 29 -4 54 -11 56
-17 2 -5 11 -10 21 -10 9 0 21 -4 27 -10 5 -5 30 -14 54 -19 25 -5 69 -14 98
-20 34 -7 60 -7 71 -2 10 6 23 6 31 1 8 -5 18 -6 24 -3 5 4 6 1 2 -6 -5 -7
-14 -10 -22 -7 -8 3 -11 0 -8 -8 3 -8 19 -16 35 -18 21 -3 28 -1 25 8 -7 19 6
25 19 8 16 -23 64 -21 255 7 99 15 123 16 137 6 19 -13 36 2 22 19 -9 11 -8
14 8 14 11 0 26 11 33 25 17 31 39 32 75 3 23 -18 46 -23 119 -28 65 -4 94 -2
101 6 6 7 24 15 40 18 17 3 50 10 75 16 50 13 52 13 135 4 46 -4 91 1 196 24
75 17 150 29 167 28 36 -2 40 8 15 36 -10 11 -12 18 -4 18 6 0 14 -6 17 -14 3
-9 13 -12 22 -9 9 4 14 3 10 -2 -9 -9 59 -65 78 -65 8 0 14 -5 14 -11 0 -7 12
-9 35 -5 32 6 51 -7 23 -16 -16 -6 -2 -38 16 -38 11 0 14 9 10 36 -6 47 -12
57 -35 51 -11 -3 -19 -1 -19 4 0 5 -8 9 -19 9 -10 0 -21 9 -24 20 -3 11 -11
18 -19 15 -7 -3 -20 0 -28 5 -12 7 -12 13 -4 27 6 10 17 18 25 19 8 0 22 4 32
8 10 5 21 6 24 2 3 -3 11 1 17 10 10 13 16 13 46 1 23 -9 67 -13 130 -12 97 3
140 10 140 26 0 5 7 9 16 9 8 0 12 -4 9 -10 -4 -7 3 -7 19 0 19 7 26 6 26 -3
0 -8 3 -8 9 2 6 10 10 10 13 1 4 -13 71 -40 99 -40 9 0 21 11 27 25 9 20 19
25 47 25 25 0 35 4 35 15 0 14 3 13 25 -1 14 -9 25 -12 25 -6 0 6 9 10 20 9
11 -1 20 -4 20 -7 0 -3 17 -6 38 -6 21 0 43 -3 48 -7 6 -3 26 -2 45 3 18 6 42
7 52 4 10 -3 34 2 53 11 20 9 52 15 72 14 20 -2 55 1 77 6 35 7 37 9 17 16
-12 5 -22 14 -22 20 0 8 4 8 15 -1 8 -7 22 -10 31 -6 8 3 24 1 35 -4 16 -9 19
-7 19 15 0 16 6 25 16 25 8 0 12 -4 9 -10 -3 -5 0 -10 7 -11 7 0 29 -2 48 -5
65 -9 132 -5 182 12 27 9 55 14 62 11 8 -3 18 -1 24 5 7 7 16 7 28 0 13 -7 22
-6 32 4 7 8 19 11 25 7 8 -5 6 -9 -5 -11 -10 -2 -18 -8 -18 -14 0 -5 7 -7 16
-4 9 3 18 6 20 6 2 0 4 7 4 16 0 9 6 14 13 11 7 -3 19 4 26 15 20 32 90 10 91
-29 0 -7 -9 -13 -20 -13 -11 0 -20 7 -20 15 0 10 -9 15 -27 14 -27 0 -27 -1
-5 -9 21 -9 31 -30 13 -30 -20 0 -17 -41 5 -79 20 -36 21 -42 7 -50 -14 -7
-13 -10 6 -20 18 -10 22 -9 27 6 4 10 11 30 17 45 l11 26 35 -34 c39 -37 53
-41 71 -19 6 7 33 17 58 21 26 4 57 11 70 15 15 6 35 4 59 -6 44 -19 49 -19
33 0 -7 8 -20 15 -29 15 -25 1 34 45 64 48 16 1 28 -5 35 -18 8 -15 21 -20 52
-20 33 0 39 3 30 12 -17 17 -15 48 3 48 8 0 15 -5 15 -12 0 -9 3 -9 11 -1 8 8
19 7 39 -4 24 -11 32 -12 50 -1 11 7 18 18 16 25 -7 18 12 27 29 13 9 -7 15
-8 20 0 9 14 36 13 33 -2 -2 -6 6 -14 16 -16 19 -4 19 -3 4 20 -15 22 -14 24
3 24 11 0 22 -8 25 -18 3 -10 16 -19 30 -19 13 -1 30 -2 37 -3 6 -1 19 3 27 8
36 26 60 35 75 30 8 -3 15 -2 15 4 0 5 10 10 23 10 50 1 92 11 89 21 -2 11 15
9 70 -5 9 -3 19 0 23 6 5 8 11 8 21 -1 10 -8 14 -8 14 0 0 7 9 9 25 5 24 -6
25 -4 25 39 0 35 -4 47 -17 51 -22 6 -43 4 -62 -8 -11 -7 -13 -5 -9 5 4 11 -3
16 -31 17 -26 2 -32 0 -21 -7 8 -5 18 -7 22 -5 4 3 8 1 8 -4 0 -11 -40 -23
-52 -16 -4 3 -5 17 -2 32 4 19 3 23 -4 13 -8 -11 -11 -11 -16 0 -3 8 -4 4 -2
-9 3 -18 2 -21 -8 -12 -8 5 -33 8 -57 6 -24 -3 -56 -5 -71 -5 -18 -1 -28 -6
-28 -16 0 -8 -5 -15 -11 -15 -5 0 -7 -5 -3 -11 4 -7 1 -10 -7 -7 -8 3 -13 12
-11 22 2 11 -4 16 -23 16 -17 0 -25 -5 -25 -17 0 -15 -2 -16 -10 -3 -8 12 -11
12 -27 -1 -10 -9 -34 -16 -52 -18 -43 -2 -51 -9 -29 -25 14 -10 1 -12 -73 -11
-87 2 -89 2 -73 -16 22 -25 15 -31 -24 -20 -18 5 -32 6 -32 2 0 -3 -13 -15
-30 -24 -22 -14 -34 -15 -49 -7 -11 5 -31 10 -46 10 -14 0 -28 7 -31 15 -4 8
-14 15 -23 15 -9 0 -22 5 -29 12 -14 14 -41 19 -64 12 -22 -7 -24 -24 -3 -24
8 0 15 -9 15 -20 0 -11 4 -20 9 -20 5 0 7 -9 4 -20 -3 -11 -10 -20 -16 -20 -6
0 -8 -3 -5 -6 4 -3 15 -1 25 4 12 7 25 7 34 1 11 -7 9 -9 -10 -9 -18 0 -22 -4
-18 -20 4 -16 1 -18 -22 -14 -15 3 -54 6 -86 7 -49 2 -60 5 -63 20 -6 31 25
67 58 67 17 0 30 3 29 8 -3 18 15 52 27 52 8 0 14 7 14 15 0 18 5 19 32 4 15
-8 19 -8 14 0 -4 6 0 11 8 11 9 0 16 5 16 10 0 6 5 10 11 10 5 0 7 -4 4 -10
-3 -5 -1 -10 4 -10 6 0 11 4 11 8 0 15 61 12 76 -3 20 -19 35 -19 28 0 -6 14
13 21 41 15 21 -4 43 -2 150 13 140 20 168 20 160 -1 -5 -13 -3 -13 13 1 10 9
27 17 38 17 10 0 51 11 89 25 39 13 80 25 91 25 12 0 25 7 28 16 5 14 9 14 22
3 13 -10 17 -10 24 0 4 8 12 11 18 7 6 -3 12 -2 14 4 3 10 85 31 123 32 15 0
13 3 -10 13 -16 7 -33 11 -37 8 -5 -2 -8 1 -8 6 0 6 -8 11 -18 11 -10 0 -23 5
-30 12 -9 9 -11 7 -8 -8 4 -18 -1 -19 -68 -16 -39 2 -76 8 -83 14 -8 6 -15 4
-21 -8 -6 -11 -11 -13 -16 -5 -4 6 -2 11 3 11 6 0 11 5 11 11 0 5 -5 7 -10 4
-6 -3 -25 4 -43 16 -23 17 -28 18 -18 5 13 -15 13 -19 0 -27 -8 -5 -21 -7 -29
-4 -10 3 -9 1 3 -9 16 -12 16 -14 1 -20 -22 -8 -26 -8 -19 3 7 12 -20 19 -72
19 -25 -1 -41 -6 -40 -12 2 -11 -12 -12 -43 -5 -10 3 -14 -2 -12 -15 3 -13 -1
-17 -11 -13 -8 3 -20 0 -26 -6 -8 -8 -11 -6 -11 7 0 16 -1 16 -16 2 -18 -19
-20 -19 -44 -6 -13 7 -19 6 -24 -6 -5 -14 -8 -14 -22 1 -12 12 -19 13 -30 4
-7 -6 -18 -8 -24 -4 -5 3 -10 1 -10 -5 0 -6 -4 -8 -10 -5 -13 8 -13 -8 1 -22
8 -8 2 -10 -20 -8 -35 2 -55 15 -25 15 16 1 15 3 -6 15 -14 8 -19 14 -11 15 8
0 11 3 7 8 -8 7 -13 8 -42 11 -8 0 -12 6 -9 11 4 6 11 8 16 5 5 -4 9 -2 9 2 0
5 -9 14 -21 21 -16 10 -24 11 -35 1 -13 -10 -12 -14 3 -31 15 -17 15 -21 3
-29 -8 -5 -27 -6 -42 -3 -18 4 -28 1 -28 -6 0 -7 7 -10 15 -7 8 4 17 2 20 -2
2 -5 22 -12 42 -16 32 -6 35 -9 18 -15 -11 -4 -25 -4 -31 1 -7 6 -16 4 -24 -5
-16 -20 -50 0 -50 30 0 15 -8 24 -26 28 -36 10 -41 1 -10 -19 14 -10 26 -25
26 -34 0 -9 5 -22 12 -29 7 -7 9 -12 5 -12 -4 0 -16 9 -28 21 -11 11 -27 18
-35 15 -8 -3 -14 -1 -14 4 0 10 15 14 34 11 5 -1 4 5 -4 13 -7 9 -19 16 -27
16 -9 0 -13 6 -10 14 5 14 -46 46 -72 46 -6 0 -11 5 -11 10 0 13 37 13 45 0 4
-6 10 -8 15 -5 4 2 19 -5 34 -16 27 -21 28 -21 29 24 1 26 -16 47 -37 46 -15
0 -17 -2 -6 -7 8 -4 16 -11 17 -17 1 -5 4 -19 8 -30 6 -19 6 -19 -8 -2 -8 9
-21 17 -30 17 -19 0 -35 22 -19 28 13 4 5 32 -10 32 -5 0 -6 -5 -2 -12z"/>
<path d="M3710 1429 c0 -6 -7 -8 -16 -5 -8 3 -12 2 -9 -4 3 -6 -4 -10 -16 -10
-22 0 -22 0 5 -29 22 -23 24 -30 12 -34 -9 -4 -17 1 -21 14 -7 20 -25 27 -25
9 0 -5 -7 -10 -15 -10 -8 0 -15 -7 -15 -15 0 -21 -16 -19 -33 5 -8 11 -17 17
-20 13 -4 -3 -7 -1 -7 5 0 7 9 12 20 12 11 0 20 5 20 10 0 17 -18 11 -46 -15
-15 -14 -33 -25 -41 -25 -7 0 -18 -11 -24 -24 -11 -24 -32 -27 -73 -11 -10 4
-21 3 -25 -2 -10 -16 -83 -3 -77 13 3 8 1 14 -4 14 -13 0 -13 33 0 46 12 12 2
46 -11 38 -5 -3 -7 -10 -4 -15 4 -5 2 -9 -4 -9 -5 0 -8 -9 -6 -20 3 -15 -3
-21 -23 -26 -15 -3 -32 -7 -38 -9 -6 -2 -17 2 -23 8 -8 8 -15 5 -27 -11 -8
-12 -20 -20 -25 -17 -5 4 -9 2 -9 -4 0 -17 20 -23 35 -11 12 10 15 9 15 -5 0
-10 -3 -16 -6 -12 -9 9 -36 -21 -30 -32 8 -13 -4 -42 -15 -35 -5 3 -9 0 -9 -5
0 -6 6 -11 13 -11 8 0 13 -13 13 -35 0 -43 27 -67 67 -60 29 5 64 32 54 41 -3
3 -23 12 -44 20 -37 14 -37 14 -8 13 50 -2 65 1 65 11 0 5 -11 12 -25 16 -16
4 -25 13 -25 25 0 16 3 18 18 10 10 -6 28 -8 39 -5 12 3 33 -2 47 -11 20 -13
29 -15 40 -6 7 6 21 9 30 5 9 -3 16 -2 16 4 0 5 12 7 26 4 14 -2 35 0 47 6 12
6 41 16 65 22 23 6 42 15 42 20 0 6 8 10 18 10 14 0 15 2 2 10 -11 7 -4 11 27
16 52 8 58 7 58 -8 0 -14 24 -33 32 -25 7 8 -16 47 -28 47 -6 0 -7 5 -4 10 4
6 1 17 -5 25 -11 13 -7 15 19 15 36 0 39 9 11 33 -11 9 -20 12 -20 6z"/>
<path d="M4998 1338 c5 -22 4 -22 -14 -7 -19 15 -54 15 -54 -1 0 -4 7 -11 16
-14 9 -3 14 -11 12 -18 -3 -7 7 -22 20 -33 24 -21 24 -53 0 -39 -6 4 -9 1 -6
-6 2 -8 12 -17 21 -22 9 -4 25 -12 34 -16 9 -5 19 -14 21 -22 3 -8 0 -10 -8
-5 -7 4 -15 2 -19 -4 -9 -14 -48 4 -90 42 -38 33 -69 49 -82 41 -6 -3 -20 2
-31 13 -12 10 -18 12 -13 4 6 -11 2 -13 -21 -7 -26 6 -25 4 11 -18 22 -14 46
-26 54 -26 7 0 36 -18 63 -40 28 -22 55 -40 59 -40 5 0 9 -4 9 -10 0 -25 -82
10 -122 52 -27 28 -48 36 -48 18 0 -5 12 -16 28 -24 30 -16 63 -51 55 -60 -3
-3 -28 11 -57 30 -28 18 -63 34 -77 34 -22 0 -26 4 -22 20 3 13 -4 27 -23 44
-35 31 -85 51 -81 33 2 -13 57 -52 69 -49 3 1 12 -5 18 -13 10 -12 10 -15 -3
-15 -8 0 -20 7 -27 15 -7 8 -17 15 -23 15 -6 0 1 -12 15 -27 15 -16 29 -39 33
-53 6 -24 4 -25 -35 -25 -36 0 -49 7 -93 47 -28 26 -55 44 -60 41 -5 -3 -3
-10 4 -15 10 -7 8 -8 -6 -3 -11 4 -27 9 -35 12 -8 2 5 -14 30 -36 25 -23 53
-41 63 -41 9 0 17 -4 17 -9 0 -5 9 -13 20 -16 28 -9 25 -25 -2 -17 -20 5 -21
3 -10 -10 16 -20 55 -28 76 -16 19 11 22 -5 4 -20 -9 -7 -24 -6 -50 3 -21 7
-39 10 -42 8 -3 -3 -12 1 -20 10 -8 8 -13 17 -10 20 6 5 -94 92 -116 100 -13
5 -13 6 0 6 24 2 -61 81 -87 81 -20 0 -23 -4 -17 -27 7 -28 31 -63 43 -61 20
2 31 -4 31 -18 0 -8 -4 -12 -10 -9 -14 8 -13 -8 1 -22 6 -6 19 -9 28 -6 10 3
12 2 5 -4 -12 -9 -12 -62 0 -81 7 -11 -7 -17 -29 -12 -45 9 -56 10 -50 0 3 -5
12 -10 19 -10 7 0 25 -14 42 -32 l29 -32 -29 19 -30 18 22 -28 c43 -55 -24
-49 -73 5 l-20 23 28 -7 c35 -8 28 10 -9 24 -13 5 -24 14 -24 20 0 6 6 8 13 4
9 -6 9 -4 -1 8 -7 8 -33 21 -58 28 -42 12 -44 14 -26 24 17 9 18 14 9 26 -15
20 -74 61 -90 64 -13 2 -59 32 -86 57 -10 9 -25 13 -36 9 -15 -5 -12 -10 19
-28 40 -24 45 -36 19 -51 -17 -9 -17 -10 0 -29 13 -15 15 -21 6 -24 -17 -6 81
-53 101 -50 13 2 13 2 0 -7 -15 -10 -16 -10 34 -25 9 -3 12 -13 9 -26 -4 -15
-11 -19 -25 -14 -16 5 -18 2 -12 -23 3 -15 14 -39 23 -53 17 -24 17 -26 -5
-48 l-23 -22 -17 25 c-10 16 -30 27 -57 32 -37 7 -42 12 -45 38 -2 16 -12 41
-21 55 -24 33 -17 47 19 42 35 -5 40 12 10 30 -11 7 -20 18 -20 25 0 7 -6 13
-14 13 -8 0 -16 7 -20 15 -3 8 -14 15 -25 15 -11 0 -23 5 -27 12 -5 8 0 9 14
6 33 -9 15 10 -25 27 -47 20 -50 19 -25 -7 11 -13 22 -30 24 -38 3 -14 -1 -15
-50 -18 -13 -1 -21 -6 -18 -11 3 -5 16 -7 29 -3 20 5 21 4 8 -11 -7 -9 -9 -17
-4 -17 6 0 21 -10 34 -22 28 -27 38 -98 13 -98 -22 0 -54 37 -54 63 0 16 -13
33 -42 54 -47 33 -95 53 -84 34 4 -6 0 -11 -8 -11 -25 0 -19 -19 9 -32 31 -14
33 -28 3 -20 l-22 5 23 -31 c24 -34 34 -41 25 -17 -11 28 37 16 69 -18 56 -58
70 -79 58 -86 -8 -5 -7 -16 3 -37 24 -48 24 -69 0 -72 -16 -2 -28 7 -44 33
-24 39 -60 65 -60 43 0 -8 -4 -7 -10 3 -6 10 -18 15 -33 12 -18 -4 -27 3 -43
34 -17 33 -25 38 -54 38 -30 0 -35 -3 -32 -21 1 -12 -4 -27 -13 -34 -18 -15
-19 -29 -4 -67 15 -36 18 -88 7 -105 -6 -10 -17 -3 -44 27 -20 22 -49 55 -65
73 -20 21 -28 39 -24 51 7 22 -32 51 -68 51 -22 0 -67 40 -67 59 0 5 -5 11
-12 13 -6 2 -17 20 -23 39 -8 23 -22 39 -46 50 -19 10 -38 15 -42 12 -4 -3
-14 1 -22 7 -12 10 -15 10 -15 -2 0 -8 5 -19 12 -26 9 -9 8 -12 -4 -12 -14 0
-14 -4 -2 -37 7 -21 13 -49 14 -62 0 -14 14 -37 34 -56 26 -24 32 -35 23 -44
-8 -8 -8 -14 1 -23 17 -17 15 -29 -3 -22 -11 5 -15 -1 -15 -19 0 -37 10 -56
26 -50 8 3 14 0 14 -5 0 -16 -18 -24 -32 -15 -7 4 -21 6 -30 5 -19 -3 -21 3
-18 54 2 37 -10 47 -45 38 -31 -8 -31 -15 1 -54 29 -33 25 -52 -6 -32 -14 8
-21 9 -26 0 -5 -7 -11 -5 -21 7 -14 21 -17 36 -5 34 20 -3 20 3 0 26 -23 26
-80 48 -103 39 -8 -3 -20 -1 -27 5 -7 6 -25 20 -40 32 -16 11 -28 29 -28 39 0
20 -33 44 -44 33 -4 -4 -9 3 -13 15 -3 12 -9 22 -15 22 -5 0 -4 -9 2 -21 9
-15 8 -24 -1 -35 -9 -11 -8 -18 5 -33 10 -11 13 -22 8 -25 -31 -19 31 -90 127
-148 47 -28 57 -40 72 -84 10 -27 19 -68 21 -90 3 -34 1 -39 -16 -36 -17 3
-18 1 -7 -12 17 -20 5 -56 -19 -56 -22 0 -36 37 -26 68 9 28 -19 50 -45 34
-25 -16 -31 -12 -65 46 -15 26 -32 50 -37 53 -5 4 -11 18 -12 32 -2 14 -6 31
-10 36 -8 14 -45 14 -45 1 0 -5 -4 -10 -9 -10 -4 0 -8 12 -8 28 0 53 -3 60
-37 76 -19 9 -37 16 -40 16 -10 0 6 -54 18 -62 6 -4 7 -10 3 -14 -4 -4 -13 -2
-19 4 -19 19 -29 14 -22 -13 4 -15 2 -25 -5 -25 -6 0 -11 9 -11 20 0 11 -5 20
-11 20 -5 0 -8 4 -5 9 12 18 -7 42 -46 60 l-40 18 27 7 c25 6 27 10 20 44 -4
20 -13 41 -21 45 -8 5 -12 12 -9 17 8 13 -24 60 -41 60 -9 0 -14 12 -14 36 0
33 -2 36 -22 30 -13 -3 -26 -6 -30 -6 -15 0 -8 -30 7 -30 8 0 15 -4 15 -9 0
-12 -29 -23 -41 -15 -5 3 -9 -1 -9 -9 0 -8 13 -17 30 -21 38 -7 49 -32 24 -51
-14 -10 -20 -10 -22 -2 -3 14 -49 37 -75 37 -10 0 -15 4 -12 10 4 6 -1 7 -11
3 -12 -5 -15 -3 -9 6 4 7 18 11 31 8 32 -6 30 7 -3 30 -22 15 -33 17 -50 9
-13 -6 -23 -16 -23 -22 0 -14 33 -44 48 -44 7 0 13 -7 14 -15 0 -8 1 -20 2
-27 1 -15 -43 -18 -71 -5 -12 5 -33 27 -47 48 -18 27 -30 36 -44 32 -13 -3
-26 6 -43 31 -30 45 -43 50 -65 25 -16 -17 -16 -19 -1 -19 10 0 17 -5 17 -11
0 -8 5 -8 15 1 13 10 15 9 15 -9 0 -25 -18 -28 -35 -4 -16 21 -47 10 -39 -14
4 -10 -10 0 -30 21 -20 22 -36 43 -36 47 0 4 -3 14 -6 23 -4 11 -1 16 11 16 9
0 13 5 10 11 -4 6 -9 8 -12 5 -3 -3 -14 -1 -25 5 -14 7 -23 7 -33 -1 -19 -16
-30 6 -11 25 17 17 42 20 51 5 3 -5 12 -10 18 -10 7 0 4 6 -5 14 -10 7 -15 16
-11 19 3 4 -7 7 -23 7 -23 0 -33 -7 -48 -35 -14 -25 -26 -35 -42 -35 -22 0
-23 -4 -21 -45 2 -33 -1 -45 -11 -45 -8 0 -16 9 -19 21 -4 16 -12 20 -30 16
-13 -2 -26 0 -29 4 -3 5 -12 9 -20 9 -11 0 -13 -6 -8 -22 6 -19 5 -21 -8 -11
-12 10 -26 9 -71 -7 -31 -11 -63 -17 -71 -14 -10 4 -16 1 -16 -9 0 -21 19 -32
33 -18 16 16 27 14 27 -5 0 -11 -5 -14 -16 -10 -12 5 -15 2 -10 -10 5 -12 2
-15 -12 -12 -11 3 -26 2 -34 -3 -22 -12 -32 29 -12 48 21 21 17 31 -9 26 -14
-3 -29 2 -36 11 -15 18 -36 22 -25 5 3 -6 1 -15 -5 -19 -9 -5 -8 -11 4 -23 9
-9 13 -22 9 -28 -4 -7 -12 0 -20 19 l-12 30 -79 -3 c-43 -1 -80 -4 -83 -5 -3
-1 -17 -1 -32 0 -14 1 -29 -3 -33 -9 -3 -6 -1 -11 4 -11 17 0 13 -40 -5 -47
-8 -3 -20 -1 -27 6 -20 20 -57 14 -57 -10 0 -11 5 -17 10 -14 6 3 10 -1 10 -9
0 -9 0 -19 1 -23 0 -4 -4 -9 -10 -11 -6 -2 -11 5 -12 15 0 10 -3 13 -6 6 -5
-14 -33 -18 -33 -5 0 4 7 16 15 26 8 11 15 29 14 40 0 15 -2 17 -6 6 -8 -21
-22 -28 -45 -22 -13 3 -18 11 -15 23 3 11 1 19 -5 19 -5 0 -12 -9 -15 -20 -4
-16 -11 -19 -32 -13 -34 8 -39 13 -13 13 12 0 22 3 23 8 0 4 2 15 4 25 4 22
-25 38 -47 26 -12 -7 -19 -5 -26 7 -6 12 -11 13 -16 5 -5 -8 -17 -4 -38 14
-38 32 -52 32 -67 -1 -11 -25 -14 -26 -66 -19 -48 6 -55 4 -55 -11 0 -15 -2
-16 -17 -2 -25 21 -63 21 -64 0 -1 -11 -4 -8 -9 8 -5 17 -8 19 -9 8 -1 -18
-16 -23 -59 -19 -20 2 -22 0 -12 -19 8 -16 8 -20 -3 -20 -8 0 -18 10 -22 23
-4 13 -8 17 -12 10 -2 -7 -13 -13 -24 -13 -10 0 -18 -3 -18 -7 4 -25 -3 -34
-20 -28 -14 4 -20 0 -23 -19 -4 -18 0 -26 14 -29 11 -3 16 -1 11 5 -4 8 5 9
27 5 18 -4 41 -7 52 -7 14 0 18 -5 15 -14 -4 -10 -1 -13 8 -10 7 3 23 1 34 -5
11 -6 22 -7 25 -2 3 5 17 11 30 13 18 4 28 -1 37 -18 13 -25 72 -51 77 -35 2
5 11 2 21 -7 13 -13 15 -21 7 -32 -6 -9 -2 -7 11 3 14 12 29 16 42 12 26 -8
16 -29 -9 -22 -13 3 -17 0 -13 -10 3 -8 12 -12 19 -9 7 3 16 1 19 -4 4 -6 14
-10 23 -10 9 0 30 -7 45 -15 15 -8 25 -10 22 -5 -3 5 -1 11 4 15 6 3 15 -4 21
-15 11 -20 60 -29 60 -10 0 6 -7 10 -15 10 -8 0 -15 4 -15 9 0 19 153 -10 202
-37 22 -13 32 -13 54 -4 27 13 59 8 79 -12 17 -16 15 -29 -6 -44 -32 -22 -24
-42 16 -39 43 3 46 17 4 17 l-32 0 25 19 c23 19 29 19 92 6 36 -8 73 -21 82
-29 8 -8 22 -12 31 -9 11 4 14 3 9 -6 -6 -8 3 -10 35 -5 31 5 40 4 35 -5 -5
-7 4 -15 23 -22 17 -6 31 -15 31 -20 0 -5 10 -9 23 -9 13 0 27 -4 33 -8 20
-18 96 -34 107 -23 6 6 16 11 21 11 6 0 5 -4 -3 -9 -18 -12 -7 -27 30 -40 25
-9 30 -8 26 3 -5 13 10 22 57 32 10 2 25 -4 32 -13 8 -11 13 -13 14 -5 0 6 7
12 16 12 8 0 12 -5 8 -11 -5 -8 -1 -8 14 0 29 15 52 14 52 -4 0 -22 17 -18 23
4 3 14 11 18 26 14 20 -5 20 -6 4 -19 -15 -11 -15 -14 -3 -14 9 -1 5 -5 -8
-11 -29 -11 -24 -35 6 -31 12 2 22 -1 22 -6 0 -6 9 -8 20 -5 11 3 20 12 20 19
0 8 7 14 15 14 8 0 15 -9 15 -19 0 -22 23 -34 38 -19 17 17 44 1 37 -22 -7
-24 2 -25 29 -5 28 21 38 19 31 -6 -6 -18 -4 -19 12 -10 15 8 23 6 35 -9 17
-19 19 -70 3 -70 -5 0 -2 -7 8 -14 15 -12 16 -14 2 -20 -9 -3 -18 1 -22 9 -3
9 -10 15 -17 14 -25 -3 -46 2 -46 10 0 6 9 8 20 6 11 -2 20 0 20 6 0 10 -12
12 -49 11 -26 -1 -44 -20 -34 -36 3 -5 1 -6 -5 -2 -16 9 -15 -5 1 -26 11 -13
21 -15 50 -9 29 7 39 5 53 -10 10 -11 12 -19 5 -19 -13 0 -8 -47 10 -92 15
-36 29 -27 22 13 -3 24 -2 29 9 23 10 -6 10 -4 -1 9 -15 19 -26 23 -15 5 4 -7
3 -8 -4 -4 -9 5 -8 12 1 27 6 10 13 15 15 9 2 -5 13 -10 23 -10 11 0 17 5 14
10 -4 6 5 10 20 10 32 0 70 -33 60 -52 -6 -10 -5 -11 6 -1 7 7 16 13 21 13 12
0 36 -53 31 -70 -3 -10 1 -8 11 4 20 24 35 12 18 -14 -16 -26 -15 -35 1 -21
10 8 17 7 27 -2 10 -10 11 -8 2 7 -7 14 -6 23 4 33 7 8 10 21 7 30 -5 13 -2
15 11 10 10 -4 22 -7 27 -7 5 0 9 -7 9 -15 0 -8 -4 -15 -9 -15 -5 0 -7 -9 -4
-20 6 -22 11 -24 33 -10 9 6 17 5 22 -3 5 -8 8 -7 8 4 0 9 -9 24 -20 34 -12
10 -18 25 -16 32 3 7 0 13 -7 13 -6 0 -1 7 12 16 19 14 25 14 32 3 7 -11 9 -9
9 8 0 15 -7 23 -22 25 -12 2 -23 9 -26 17 -3 9 0 11 9 5 12 -6 12 -5 0 9 -8
10 -11 20 -8 23 9 9 -21 36 -31 30 -5 -3 -7 -28 -4 -56 4 -49 -9 -69 -22 -33
-5 11 -10 13 -14 7 -10 -15 -42 -25 -42 -14 0 6 7 10 15 10 8 0 15 5 15 11 0
6 -9 8 -21 4 -16 -5 -19 -4 -14 5 5 9 4 11 -4 6 -6 -4 -8 -12 -5 -18 4 -6 1
-8 -7 -6 -8 3 -13 11 -11 17 1 6 -2 11 -8 11 -5 0 -7 6 -4 14 4 10 -1 15 -13
14 -10 0 -26 3 -35 7 -11 4 -18 3 -18 -4 0 -6 -4 -11 -10 -11 -5 0 -10 10 -10
21 0 18 -3 19 -15 9 -11 -9 -12 -17 -5 -30 7 -13 7 -21 0 -25 -11 -7 -11 -8
-14 22 -2 13 -10 31 -19 41 -15 16 -15 19 3 30 15 9 18 19 13 44 -4 23 -2 30
5 23 5 -5 12 -19 14 -30 4 -26 38 -32 55 -9 11 15 13 15 13 2 0 -8 -7 -21 -15
-28 -21 -17 -19 -32 3 -28 11 2 27 -4 37 -12 11 -8 16 -10 12 -3 -4 6 -3 14 3
18 5 3 10 1 10 -4 0 -6 7 -11 16 -11 11 0 14 -6 9 -22 -4 -16 -4 -19 3 -9 5 7
14 11 20 7 6 -3 18 -3 28 1 16 6 16 7 -2 20 -12 9 -19 28 -20 56 -3 54 17 71
68 56 48 -13 54 -20 62 -61 6 -32 4 -37 -9 -32 -8 3 -15 3 -15 0 0 -4 10 -11
23 -16 22 -9 22 -9 -3 -10 -24 -1 -24 -1 -6 -15 10 -8 22 -12 26 -10 5 3 17
-15 29 -40 12 -25 26 -45 31 -45 6 0 12 0 15 0 3 0 4 1 3 3 -2 2 4 11 13 20
20 19 48 13 101 -20 22 -13 44 -20 54 -16 15 6 14 7 -4 14 -12 5 -22 15 -22
24 0 8 -5 15 -11 15 -5 0 -8 4 -4 10 3 5 13 6 22 3 13 -5 15 -1 11 25 -2 18
-1 32 4 32 4 0 8 -9 8 -20 l0 -20 37 20 c21 11 42 20 47 20 5 0 17 7 26 15 16
14 18 13 30 -15 8 -19 18 -29 26 -26 8 3 14 1 14 -4 0 -6 10 -8 23 -6 12 2 28
-2 36 -8 12 -9 13 -8 6 3 -6 11 -3 13 13 9 12 -4 20 -2 16 3 -3 5 1 9 9 9 8 0
17 7 21 15 3 8 16 15 28 16 21 1 21 1 -4 10 -16 6 -25 16 -22 24 3 7 -4 18
-15 25 -12 6 -21 15 -21 20 0 15 27 12 33 -4 4 -9 16 -13 33 -11 23 2 41 -10
104 -75 41 -42 76 -87 77 -98 1 -12 -1 -21 -5 -21 -19 3 -23 -2 -12 -16 16
-20 27 -19 33 2 4 15 5 15 6 -2 1 -17 3 -18 11 -5 9 13 12 12 25 -4 15 -19 15
-19 15 5 1 21 2 22 11 6 13 -22 29 -22 29 1 0 11 7 6 20 -15 11 -18 25 -33 31
-33 7 0 8 4 2 13 -29 38 8 57 96 50 63 -6 64 13 1 23 -22 4 -37 11 -34 16 3 5
-3 4 -15 -4 -12 -7 -21 -17 -21 -22 0 -5 -8 -2 -18 7 -14 13 -21 14 -30 5 -9
-9 -12 -9 -12 0 0 7 -13 12 -28 12 -15 0 -33 5 -40 12 -9 9 -12 9 -12 -1 0 -7
-5 -9 -10 -6 -6 4 -8 11 -5 16 4 5 -1 9 -9 9 -24 0 -30 20 -10 35 17 13 17 14
2 15 -21 0 -37 27 -31 50 6 21 -27 36 -39 18 -5 -9 -8 -7 -8 7 0 11 -10 26
-21 34 -19 11 -21 11 -16 -1 6 -17 -24 -21 -35 -4 -6 8 -8 8 -8 0 0 -6 -14
-11 -32 -12 -18 0 -28 2 -23 6 6 4 15 16 21 27 9 16 22 20 62 21 52 2 76 -11
70 -37 -2 -7 5 -15 15 -17 9 -2 17 2 17 8 0 12 -47 79 -65 93 -6 4 -5 10 4 16
11 7 11 9 0 13 -12 4 -12 7 0 21 10 13 17 15 27 6 16 -13 19 -33 4 -24 -5 3
-10 1 -10 -4 0 -6 9 -11 20 -11 11 0 23 -7 27 -16 5 -13 7 -13 14 -2 6 9 9 9
9 1 0 -6 -5 -15 -10 -18 -6 -4 -4 -12 6 -22 10 -10 12 -18 5 -22 -6 -4 -12
-30 -15 -59 -4 -48 -3 -52 17 -51 12 0 16 3 10 6 -7 2 -13 9 -13 14 0 6 4 8 9
4 16 -9 24 15 11 30 -7 9 -8 15 -2 15 5 0 15 -7 23 -16 11 -14 13 -14 21 1 5
8 13 13 19 10 5 -4 6 2 2 12 -4 10 -12 22 -20 26 -18 11 -17 28 2 21 9 -4 15
0 15 10 0 9 5 16 10 16 6 0 10 7 10 15 0 8 3 15 8 15 4 0 14 5 22 10 13 8 12
11 -5 24 -19 14 -17 15 28 16 30 0 46 4 42 10 -9 15 4 12 21 -5 9 -8 24 -15
34 -15 11 0 23 -7 28 -15 4 -9 17 -16 28 -16 38 1 53 4 49 12 -8 12 6 39 21
39 8 0 14 -4 14 -8 0 -5 7 -9 15 -9 10 0 14 6 10 14 -3 8 -5 17 -5 19 0 3 -6
2 -12 -2 -7 -4 -6 1 3 12 9 10 14 25 12 32 -3 6 3 12 12 12 9 0 13 -4 10 -10
-3 -6 1 -7 10 -4 8 4 21 1 28 -4 14 -12 60 -5 52 8 -3 5 -1 11 5 15 5 3 10 2
10 -3 0 -5 19 -9 42 -10 23 -1 50 -10 60 -19 11 -9 26 -18 34 -19 24 -4 27
-10 13 -36 -10 -18 -5 -17 21 10 19 17 39 32 44 32 6 0 5 -4 -3 -9 -14 -9 -7
-31 10 -31 11 0 39 -25 39 -35 0 -3 -5 -3 -11 1 -7 4 -10 1 -7 -6 5 -16 38
-23 38 -8 0 5 6 8 12 6 7 -3 13 -24 14 -49 1 -45 -11 -73 -27 -63 -5 3 -9 0
-9 -6 0 -6 10 -8 25 -4 17 4 25 2 25 -7 0 -9 5 -7 12 5 9 15 7 22 -8 33 -10 7
-12 13 -6 13 7 0 11 3 9 8 -1 4 1 8 6 10 18 6 25 0 20 -18 -3 -12 0 -20 7 -20
7 0 10 -7 6 -16 -5 -12 -2 -15 11 -10 9 4 20 1 24 -6 6 -9 11 -9 21 0 14 11
24 2 55 -56 11 -21 11 -25 -7 -29 -12 -3 -20 -13 -19 -27 0 -20 1 -20 8 -2 5
14 10 16 15 7 6 -9 12 -8 27 5 10 9 16 20 14 24 -3 5 -1 19 3 31 l9 23 12 -22
c15 -28 26 -28 28 -1 2 28 11 35 25 21 7 -7 21 -12 32 -11 20 0 20 1 -1 9 -13
5 -23 13 -23 17 0 10 51 10 65 1 6 -4 17 -3 25 3 12 7 10 9 -8 9 -13 0 -20 4
-17 10 3 5 0 7 -9 4 -8 -3 -25 5 -37 17 -12 12 -20 16 -17 8 5 -12 -2 -14 -28
-11 -22 3 -35 11 -39 23 -4 10 -11 19 -16 19 -6 0 -8 -4 -5 -9 11 -17 -5 -39
-25 -34 -10 3 -19 10 -19 15 0 5 10 6 21 3 14 -5 19 -3 15 4 -10 15 -98 10
-92 -5 5 -13 -23 -29 -32 -19 -3 3 -6 14 -7 25 -1 10 -19 35 -40 55 -30 29
-35 39 -24 46 12 7 12 9 -1 10 -8 1 -21 1 -27 0 -7 -1 -13 3 -13 9 0 6 4 9 9
6 5 -3 12 2 15 11 4 10 4 14 0 11 -3 -4 -21 9 -39 28 -18 18 -39 34 -47 34 -8
0 -23 7 -34 15 -17 13 -16 14 16 5 44 -12 50 -12 50 0 0 6 -7 10 -15 10 -8 0
-15 7 -15 16 0 8 -4 13 -9 9 -6 -3 -14 2 -19 11 -5 9 -21 17 -35 17 -14 0 -28
6 -31 13 -3 8 -11 12 -18 9 -7 -3 -19 -1 -26 4 -10 6 -11 13 -1 34 13 29 45
35 91 18 13 -4 36 -11 53 -15 28 -7 29 -7 12 12 -26 29 -21 30 35 11 36 -12
58 -14 70 -8 12 7 18 6 18 -2 0 -6 9 -9 20 -6 12 3 27 -2 36 -11 13 -12 17
-13 24 -2 6 9 13 7 29 -9 18 -18 25 -20 37 -10 13 10 17 10 24 -1 8 -12 10
-12 15 1 5 13 33 17 55 9 3 -1 8 -2 12 -1 4 0 19 -4 33 -9 31 -12 55 -3 55 20
0 30 34 59 68 58 21 -1 32 -6 32 -16 0 -8 -6 -12 -15 -8 -19 7 -19 -1 -1 -20
8 -8 17 -10 20 -5 3 5 16 7 29 3 l22 -5 -20 23 -20 23 23 -6 c15 -3 22 -1 19
6 -2 7 -12 14 -23 15 -10 2 -25 11 -31 20 -7 9 -13 12 -13 6 0 -5 -7 -1 -15
10 -8 11 -20 16 -30 12 -9 -3 -13 -2 -10 4 3 5 -5 15 -19 22 -14 6 -26 15 -26
20 0 4 -6 8 -12 8 -7 -1 -2 -10 11 -21 28 -23 19 -40 -25 -43 -16 -1 -39 -6
-51 -10 -19 -6 -23 -4 -23 14 0 16 4 20 16 16 9 -4 23 -1 30 5 11 9 18 8 32
-2 15 -13 16 -12 3 4 -7 9 -22 17 -32 17 -10 0 -21 5 -24 10 -3 6 3 10 14 10
12 0 21 5 21 10 0 6 7 10 16 10 8 0 12 5 9 10 -11 18 29 10 55 -10 30 -24 77
-26 101 -4 20 18 39 11 39 -14 1 -9 7 -2 15 16 8 18 19 31 25 27 6 -4 10 27
10 89 0 89 -1 96 -20 96 -18 0 -25 11 -21 33 1 5 -8 5 -20 2 -13 -4 -19 -3
-16 2 4 6 -6 16 -21 23 -15 7 -22 15 -15 17 7 2 9 11 6 19 -3 8 0 14 6 14 7 0
14 -7 18 -16 3 -8 12 -13 19 -10 7 3 17 0 21 -7 5 -7 16 -18 26 -26 15 -12 17
-10 17 23 0 32 -5 39 -47 66 -59 37 -83 39 -75 8z"/>
<path d="M2867 1113 c-12 -12 -7 -23 10 -23 12 0 14 -3 6 -11 -8 -8 -17 -5
-34 13 l-24 23 -3 -32 c-4 -37 -17 -43 -27 -13 -7 21 -45 36 -70 26 -26 -10
-16 -38 27 -78 36 -33 44 -37 54 -24 8 12 14 12 22 4 9 -9 18 -8 36 2 24 12
90 6 137 -14 11 -5 18 -1 21 11 6 24 -1 43 -17 43 -8 0 -11 7 -8 20 5 19 -4
25 -34 21 -6 -1 -14 8 -18 19 -5 16 -10 18 -25 10 -13 -7 -21 -7 -25 0 -7 12
-19 13 -28 3z"/>
<path d="M927 646 c13 -18 22 -22 34 -15 18 9 31 -1 43 -36 7 -19 8 -19 17 -2
6 9 19 17 29 17 11 0 20 6 20 14 0 9 7 12 20 9 20 -5 19 -6 -5 -29 l-25 -23
22 -12 22 -12 -22 -8 c-44 -16 -11 -56 35 -43 16 4 31 7 36 6 4 -1 7 3 7 8 0
6 -5 10 -12 10 -6 0 -8 3 -5 6 4 4 13 2 21 -5 11 -9 15 -8 20 6 6 15 8 15 16
3 8 -12 10 -10 10 7 0 20 -3 21 -25 13 -33 -12 -32 3 1 29 14 11 23 25 19 31
-5 8 -14 5 -26 -9 -23 -24 -31 -26 -28 -8 3 16 -22 67 -33 67 -4 0 -8 -5 -8
-11 0 -6 -10 -9 -23 -7 -13 2 -29 -1 -35 -9 -17 -17 -38 -18 -24 0 8 9 -1 12
-39 11 -27 -1 -52 3 -55 7 -3 5 -10 9 -15 9 -5 0 -2 -11 8 -24z"/>
<path d="M4120 568 c0 -4 5 -10 11 -14 7 -4 7 -10 1 -16 -11 -11 2 -64 19 -82
5 -6 9 -18 9 -28 0 -21 16 -24 24 -5 3 6 4 3 3 -8 -1 -14 3 -19 16 -17 9 2 17
-2 17 -8 0 -5 -11 -10 -24 -10 -30 0 -42 -15 -20 -24 8 -3 22 1 30 9 22 22 32
19 65 -17 16 -18 29 -27 29 -20 0 7 6 10 13 7 6 -4 3 1 -7 9 -11 9 -16 16 -12
16 5 0 2 7 -5 17 -13 15 -12 15 16 1 30 -15 93 -10 67 6 -17 10 -15 29 3 22
28 -10 15 12 -14 25 -16 7 -28 16 -25 20 2 4 -3 12 -11 19 -12 10 -15 9 -15
-4 0 -9 -4 -16 -9 -16 -11 0 -41 57 -41 77 0 11 -3 11 -14 1 -9 -8 -11 -19 -6
-29 10 -18 -3 -44 -18 -36 -5 4 -8 22 -5 42 3 29 0 35 -16 35 -12 0 -18 6 -17
17 1 13 -7 18 -31 18 -18 0 -33 -3 -33 -7z"/>
<path d="M1680 460 c0 -5 5 -10 10 -10 6 0 10 -7 10 -16 0 -10 6 -14 15 -10 8
3 14 0 12 -7 -1 -7 4 -11 11 -9 6 1 12 -4 12 -12 0 -16 48 -28 56 -14 3 4 10
6 15 2 5 -3 16 -1 24 6 10 8 19 8 34 0 19 -10 25 -7 22 13 -2 14 27 7 33 -8 9
-24 36 -18 36 8 0 20 -8 26 -47 37 -27 7 -82 14 -125 14 -42 1 -80 4 -84 9
-11 10 -34 9 -34 -3z"/>
<path d="M3956 401 c-3 -5 1 -14 9 -21 8 -7 15 -23 15 -36 0 -15 6 -24 15 -24
8 0 15 -4 15 -10 0 -13 -6 -13 -31 0 -10 6 -19 17 -19 25 0 17 -17 28 -30 20
-7 -4 -7 -13 0 -26 7 -11 7 -19 1 -19 -5 0 -11 5 -13 11 -6 17 -38 -2 -38 -22
0 -10 -4 -19 -10 -19 -5 0 -10 -7 -10 -15 0 -12 4 -14 17 -6 12 7 21 5 30 -7
11 -14 13 -14 11 -2 -2 11 5 14 29 13 27 -3 31 0 27 15 -4 11 1 8 15 -8 11
-14 21 -29 21 -35 0 -5 9 7 20 28 11 21 17 43 13 50 -4 7 -7 24 -8 39 0 16 -4
28 -10 29 -5 1 -19 8 -30 15 -23 16 -32 17 -39 5z"/>
<path d="M1648 373 c-10 -2 -18 -8 -18 -13 0 -4 -10 -10 -22 -14 -22 -5 -21
-7 11 -26 18 -12 40 -19 47 -16 8 3 14 -1 14 -10 0 -12 6 -15 24 -10 15 4 28
1 32 -6 4 -7 4 -10 -1 -6 -4 4 -13 1 -19 -7 -8 -11 -20 -12 -46 -7 -28 7 -39
4 -52 -10 -17 -17 -17 -18 1 -18 11 0 26 -3 35 -6 11 -4 16 -1 16 10 0 9 5 16
11 16 5 0 8 -4 5 -9 -9 -14 16 -28 57 -33 36 -4 38 -3 34 19 -3 19 -1 23 12
19 12 -5 12 -3 -2 8 -18 14 -18 14 0 19 11 3 6 5 -12 6 -20 1 -26 4 -17 10 18
11 -9 34 -31 25 -8 -3 -18 -1 -22 5 -3 7 2 11 14 11 11 0 23 5 26 10 3 6 0 10
-7 10 -9 0 -9 3 2 10 9 6 10 10 3 10 -6 0 -15 -4 -18 -10 -3 -5 -11 -10 -16
-10 -6 0 -7 5 -4 10 3 6 2 10 -4 10 -5 0 -15 2 -23 4 -7 2 -21 2 -30 -1z"/>
<path d="M5055 360 c-27 -18 -31 -18 -47 -3 -10 9 -18 12 -18 6 0 -5 11 -19
25 -31 29 -25 31 -37 9 -46 -12 -5 -15 -2 -10 10 5 12 1 14 -15 9 -14 -5 -19
-3 -15 3 3 6 1 14 -5 18 -8 5 -9 3 -4 -6 6 -10 4 -12 -9 -7 -10 4 -15 3 -11
-3 3 -6 -1 -10 -9 -10 -9 0 -16 4 -16 10 0 5 -8 7 -17 4 -15 -5 -16 -4 -3 5
13 9 12 12 -5 25 -29 23 -32 20 -26 -26 5 -31 11 -42 26 -44 11 -2 21 -8 23
-14 2 -6 16 -16 30 -21 19 -7 22 -13 14 -21 -18 -18 -14 -33 3 -18 9 7 18 10
22 7 3 -4 13 -1 21 5 11 10 17 9 27 -5 15 -21 25 -22 25 -2 0 8 -4 15 -10 15
-5 0 -10 9 -10 20 0 27 8 25 42 -7 l28 -27 0 26 c0 17 -10 34 -27 47 -56 42
-57 43 -38 53 12 8 22 5 36 -11 27 -29 29 -27 29 19 0 47 -17 52 -65 20z"/>
<path d="M1817 274 c-4 -4 2 -17 12 -28 11 -12 20 -25 19 -31 0 -5 13 -16 28
-25 40 -22 41 -40 2 -40 -25 0 -29 -3 -18 -10 25 -16 50 -11 75 14 17 17 27
20 34 13 18 -18 13 -27 -14 -27 -21 0 -24 -3 -17 -17 11 -19 44 -27 52 -13 3
5 17 3 32 -5 15 -7 36 -11 46 -8 10 2 43 0 73 -5 33 -7 58 -7 64 -1 5 5 -2 9
-19 9 -15 0 -36 5 -47 10 -21 12 -26 36 -8 42 6 2 8 14 4 30 -5 18 -12 24 -24
21 -10 -2 -23 3 -30 11 -22 26 -50 20 -46 -9 3 -29 -10 -34 -18 -6 -3 14 -11
18 -26 14 -12 -3 -21 -1 -21 6 0 6 -3 10 -7 10 -22 -4 -41 3 -59 20 -23 21
-76 36 -87 25z"/>
<path d="M3050 133 c0 -14 -2 -15 -9 -4 -5 8 -11 9 -15 3 -3 -5 6 -22 21 -38
15 -16 26 -30 25 -31 -1 -2 -2 -6 -2 -10 1 -5 10 3 20 16 l20 23 -2 -22 c-4
-30 22 -39 29 -11 5 21 7 21 33 -10 27 -29 29 -30 32 -9 3 19 5 20 23 6 11 -8
16 -18 12 -22 -4 -5 -12 -2 -17 6 -8 12 -10 11 -10 -5 0 -15 7 -21 30 -22 29
-2 40 10 20 22 -13 8 -13 25 1 25 5 0 8 -4 5 -9 -8 -13 42 -43 62 -38 12 3 10
5 -5 6 -22 1 -27 10 -24 38 1 7 -7 13 -18 13 -11 0 -24 6 -28 13 -4 7 -23 24
-42 36 -27 20 -35 21 -42 10 -7 -12 -9 -12 -9 0 0 7 -6 11 -14 8 -7 -3 -23 1
-35 9 -11 8 -21 11 -21 5 0 -5 8 -14 17 -20 10 -5 15 -12 12 -16 -4 -3 -21 6
-38 20 -27 24 -31 25 -31 8z"/>
</g>
</svg>
