<?xml version="1.0" encoding="UTF-8"?>
<!DOCTYPE svg PUBLIC "-//W3C//DTD SVG 1.1//EN" "http://www.w3.org/Graphics/SVG/1.1/DTD/svg11.dtd">
<svg xmlns="http://www.w3.org/2000/svg" version="1.1" width="1080px" height="1080px" style="shape-rendering:geometricPrecision; text-rendering:geometricPrecision; image-rendering:optimizeQuality; fill-rule:evenodd; clip-rule:evenodd" xmlns:xlink="http://www.w3.org/1999/xlink">
<g><path style="opacity:1" fill="#fefefe" d="M -0.5,-0.5 C 359.5,-0.5 719.5,-0.5 1079.5,-0.5C 1079.5,359.5 1079.5,719.5 1079.5,1079.5C 719.5,1079.5 359.5,1079.5 -0.5,1079.5C -0.5,719.5 -0.5,359.5 -0.5,-0.5 Z"/></g>
<g><path style="opacity:1" fill="#0a0a09" d="M 896.5,91.5 C 899.785,91.2693 902.285,92.6026 904,95.5C 912.254,109.672 920.254,124.005 928,138.5C 931.948,151.681 933.781,165.181 933.5,179C 933.467,195.71 931.633,212.21 928,228.5C 926,237.024 923.167,245.19 919.5,253C 903.754,257.87 888.421,263.87 873.5,271C 860.956,275.404 848.289,279.404 835.5,283C 819.378,312.09 801.878,340.256 783,367.5C 752.466,408.716 714.632,441.216 669.5,465C 657.897,465.742 651.397,460.242 650,448.5C 646.469,420.063 656.969,398.563 681.5,384C 689.5,376 697.5,368 705.5,360C 696.161,358.039 686.827,358.039 677.5,360C 664.297,363.402 651.297,367.402 638.5,372C 620.761,387.951 602.927,403.784 585,419.5C 578.338,430.797 571.671,442.13 565,453.5C 563.798,456.774 562.798,460.107 562,463.5C 561.667,475.833 561.333,488.167 561,500.5C 558.847,523.989 546.013,535.489 522.5,535C 513.929,529.91 508.595,522.41 506.5,512.5C 502.929,511.752 499.595,512.585 496.5,515C 485.798,517.066 476.965,513.9 470,505.5C 455.062,481.679 448.062,455.679 449,427.5C 445.416,415.746 444.083,403.746 445,391.5C 453.686,369.092 460.352,346.092 465,322.5C 468.558,310.051 474.225,298.718 482,288.5C 497.509,271.179 514.342,255.346 532.5,241C 555.277,223.557 578.61,206.891 602.5,191C 652.19,163.995 705.19,147.995 761.5,143C 794.203,133.409 826.537,122.742 858.5,111C 871.666,105.252 884.333,98.7515 896.5,91.5 Z"/></g>
<g><path style="opacity:1" fill="#fde8c4" d="M 894.5,100.5 C 897.522,100.428 899.688,101.762 901,104.5C 908.444,116.386 915.111,128.72 921,141.5C 926.178,157.103 927.845,173.103 926,189.5C 924.282,203.862 922.282,218.195 920,232.5C 918.794,237.792 916.628,242.625 913.5,247C 888.635,257.788 863.302,267.288 837.5,275.5C 839.273,257.539 839.773,239.539 839,221.5C 837,220.167 835,220.167 833,221.5C 835.707,251.923 829.373,280.257 814,306.5C 800.418,326.662 787.085,346.996 774,367.5C 745.99,403.854 712.157,433.354 672.5,456C 667.002,458.597 662.168,457.764 658,453.5C 652.246,425.735 661.412,404.568 685.5,390C 694.363,380.803 703.53,371.969 713,363.5C 714.929,359.149 713.762,355.649 709.5,353C 700.536,351.616 691.536,351.283 682.5,352C 668.456,355.459 654.456,359.125 640.5,363C 636.868,364.484 633.534,366.484 630.5,369C 615.797,382.705 600.797,396.038 585.5,409C 581.631,412.534 578.131,416.367 575,420.5C 568.841,432.822 562.174,444.822 555,456.5C 554.457,472.838 553.79,489.172 553,505.5C 550.742,518.09 543.409,525.757 531,528.5C 528.453,528.238 525.953,527.738 523.5,527C 521.667,525.167 519.833,523.333 518,521.5C 507.133,499.034 501.466,475.368 501,450.5C 511.742,418.16 528.242,389.327 550.5,364C 572.723,346.384 596.723,331.55 622.5,319.5C 623.883,315.046 622.217,313.213 617.5,314C 597.983,324.201 578.983,335.201 560.5,347C 537.431,366.077 519.598,389.244 507,416.5C 503.138,425.085 499.472,433.752 496,442.5C 494.458,451.104 494.124,459.77 495,468.5C 497.015,478.223 499.181,487.89 501.5,497.5C 500.856,504.308 497.023,507.975 490,508.5C 485.041,507.879 480.708,505.879 477,502.5C 466.184,488.407 459.851,472.407 458,454.5C 455.096,442.726 456.096,431.393 461,420.5C 480.012,386.34 503.512,355.507 531.5,328C 546.684,316.486 563.684,308.82 582.5,305C 584.698,303.33 585.032,301.33 583.5,299C 553.957,303.191 529.457,316.691 510,339.5C 489.131,363.573 470.465,389.239 454,416.5C 450.78,406.877 450.78,397.211 454,387.5C 459.489,367.185 469.156,349.185 483,333.5C 498.204,319.295 513.037,304.795 527.5,290C 526.553,286.928 524.553,285.928 521.5,287C 512.69,295.566 503.69,303.899 494.5,312C 486.802,319.364 479.469,327.03 472.5,335C 471.4,335.432 470.733,334.932 470.5,333.5C 472.292,319.953 477.126,307.62 485,296.5C 495.465,283.701 506.965,271.867 519.5,261C 550.725,234.386 584.058,210.719 619.5,190C 673.958,162.969 731.625,149.303 792.5,149C 794.17,145.549 793.17,143.049 789.5,141.5C 814.93,134.301 839.93,125.801 864.5,116C 874.718,111.059 884.718,105.892 894.5,100.5 Z"/></g>
<g><path style="opacity:1" fill="#050607" d="M 539.5,538.5 C 562.035,537.133 582.702,542.633 601.5,555C 611.416,563.661 617.582,574.494 620,587.5C 626.343,625.362 611.176,649.196 574.5,659C 543.17,665.069 517.004,656.235 496,632.5C 475.344,600.114 480.511,572.614 511.5,550C 520.334,544.674 529.668,540.84 539.5,538.5 Z"/></g>
<g><path style="opacity:1" fill="#1787c8" d="M 534.5,547.5 C 559.522,547.095 579.689,556.761 595,576.5C 605.402,593.887 604.735,610.887 593,627.5C 571.56,655.411 545.727,660.244 515.5,642C 494.63,626.421 487.13,605.921 493,580.5C 502.614,564.038 516.447,553.038 534.5,547.5 Z"/></g>
<g><path style="opacity:1" fill="#157eba" d="M 587.5,557.5 C 592.099,557.286 596.099,559.12 599.5,563C 597.5,563.667 595.5,563.667 593.5,563C 591.63,560.96 589.63,559.127 587.5,557.5 Z"/></g>
<g><path style="opacity:1" fill="#157db9" d="M 600.5,570.5 C 603.099,570.549 605.266,571.549 607,573.5C 609.714,578.581 611.547,583.914 612.5,589.5C 610.856,589.714 609.356,589.38 608,588.5C 605.763,582.364 603.263,576.364 600.5,570.5 Z"/></g>
<g><path style="opacity:1" fill="#f7fafb" d="M 527.5,586.5 C 536.506,586.334 545.506,586.5 554.5,587C 557.778,589.288 558.278,592.121 556,595.5C 551.626,603.083 547.126,610.583 542.5,618C 541.216,618.684 540.049,618.517 539,617.5C 534.333,609.5 529.667,601.5 525,593.5C 524.333,592.167 524.333,590.833 525,589.5C 526.045,588.627 526.878,587.627 527.5,586.5 Z"/></g>
<g><path style="opacity:1" fill="#2089ca" d="M 538.5,590.5 C 538.822,596.358 538.489,602.025 537.5,607.5C 534.528,602.184 531.528,596.85 528.5,591.5C 531.768,590.513 535.102,590.18 538.5,590.5 Z"/></g>
<g><path style="opacity:1" fill="#1d89ca" d="M 543.5,590.5 C 546.898,590.18 550.232,590.513 553.5,591.5C 550.488,596.861 547.488,602.194 544.5,607.5C 543.511,602.025 543.178,596.358 543.5,590.5 Z"/></g>
<g><path style="opacity:1" fill="#9fcde4" d="M 543.5,590.5 C 543.178,596.358 543.511,602.025 544.5,607.5C 544.217,608.289 543.717,608.956 543,609.5C 542.18,602.986 542.347,596.653 543.5,590.5 Z"/></g>
<g><path style="opacity:1" fill="#7fbbdf" d="M 538.5,590.5 C 539.653,596.653 539.82,602.986 539,609.5C 538.283,608.956 537.783,608.289 537.5,607.5C 538.489,602.025 538.822,596.358 538.5,590.5 Z"/></g>
<g><path style="opacity:1" fill="#157bb6" d="M 610.5,597.5 C 611.833,597.5 613.167,597.5 614.5,597.5C 613.159,605.196 611.659,612.862 610,620.5C 608.263,622.625 606.096,623.458 603.5,623C 607.577,614.942 609.91,606.442 610.5,597.5 Z"/></g>
<g><path style="opacity:1" fill="#157cb7" d="M 600.5,631.5 C 601.978,631.238 603.311,631.571 604.5,632.5C 600.848,640.152 594.848,643.985 586.5,644C 591.335,639.997 596.002,635.83 600.5,631.5 Z"/></g>
<g><path style="opacity:1" fill="#0b0b0a" d="M 643.5,679.5 C 651.343,679.033 659.01,679.866 666.5,682C 670.763,686.358 673.597,691.525 675,697.5C 675.499,702.155 675.666,706.821 675.5,711.5C 694.735,709.033 705.902,717.367 709,736.5C 712.069,760.809 709.402,784.475 701,807.5C 700.141,823.961 695.141,838.961 686,852.5C 678.627,860.204 671.627,868.204 665,876.5C 654.875,898.624 639.709,916.458 619.5,930C 595.377,942.153 570.377,952.153 544.5,960C 529.063,964.359 513.73,969.025 498.5,974C 435.789,987.829 373.456,986.496 311.5,970C 289.47,969.665 267.47,968.665 245.5,967C 231.5,966.333 217.5,966.333 203.5,967C 189.843,968.75 176.176,970.083 162.5,971C 161.299,970.097 160.465,968.931 160,967.5C 157.668,954.504 155.334,941.504 153,928.5C 151.175,910.586 153.509,893.252 160,876.5C 166.455,861.383 173.789,846.716 182,832.5C 186.406,825.424 191.572,818.924 197.5,813C 215.964,812.896 234.464,812.396 253,811.5C 264.878,811.64 276.711,812.14 288.5,813C 314.688,790.139 342.021,768.806 370.5,749C 411.077,722.916 455.244,706.083 503,698.5C 513.331,699.164 518.497,704.664 518.5,715C 516.786,733.432 508.786,748.432 494.5,760C 474.755,767.36 455.422,775.693 436.5,785C 443.11,789.634 450.443,792.634 458.5,794C 471.325,795.287 484.158,796.454 497,797.5C 499.547,797.238 502.047,796.738 504.5,796C 526.246,787.529 547.913,778.862 569.5,770C 578.5,763 587.5,756 596.5,749C 599.453,745.592 602.287,742.092 605,738.5C 611.278,723.002 617.944,707.668 625,692.5C 629.99,686.275 636.157,681.941 643.5,679.5 Z"/></g>
<g><path style="opacity:1" fill="#fde8c4" d="M 648.5,685.5 C 659.338,684.176 665.838,688.842 668,699.5C 669.508,722.253 667.174,744.586 661,766.5C 641.583,791.923 618.417,813.09 591.5,830C 581.549,834.738 571.215,838.405 560.5,841C 550.418,843.021 540.418,845.354 530.5,848C 520.148,849.385 509.815,850.718 499.5,852C 497.779,856.469 499.445,858.635 504.5,858.5C 525.026,855.64 545.359,851.806 565.5,847C 582.851,841.99 598.851,834.323 613.5,824C 632.628,809.872 649.461,793.372 664,774.5C 667.52,768.606 669.854,762.273 671,755.5C 672.794,746.592 673.794,737.592 674,728.5C 676.658,718.105 682.824,715.605 692.5,721C 698.117,725.395 701.284,731.228 702,738.5C 705.134,761.228 702.467,783.228 694,804.5C 658.508,838.676 617.341,863.843 570.5,880C 557.762,880.957 545.095,880.457 532.5,878.5C 529.173,880.291 528.84,882.457 531.5,885C 551.533,889.148 571.2,887.815 590.5,881C 627.6,864.382 661.433,842.882 692,816.5C 691.39,825.413 688.723,833.746 684,841.5C 672.025,859.81 656.525,874.31 637.5,885C 618.112,893.458 598.945,902.291 580,911.5C 580.287,916.616 582.787,917.783 587.5,915C 607.915,906.697 627.915,897.53 647.5,887.5C 648.614,888.723 648.781,890.056 648,891.5C 638.409,905.759 626.242,917.259 611.5,926C 584.425,939.026 556.425,949.693 527.5,958C 464.492,978.483 400.492,982.15 335.5,969C 317.881,964.762 300.548,959.596 283.5,953.5C 281.391,953.775 280.058,954.942 279.5,957C 280.487,959.321 282.154,960.987 284.5,962C 266.025,961.734 247.525,960.9 229,959.5C 209.378,959.821 189.878,961.487 170.5,964.5C 169.228,964.43 168.062,964.097 167,963.5C 154.31,926.347 157.644,890.681 177,856.5C 181.253,849.663 185.253,842.663 189,835.5C 192.118,830.714 195.618,826.214 199.5,822C 201.715,820.956 204.048,820.29 206.5,820C 232.167,819.333 257.833,819.333 283.5,820C 276.654,833.859 270.488,848.026 265,862.5C 263.876,865.442 263.542,868.442 264,871.5C 265.388,872.554 266.888,872.72 268.5,872C 272.778,861.935 276.945,851.769 281,841.5C 288.495,824.675 299.662,810.841 314.5,800C 338.045,780.454 362.712,762.454 388.5,746C 423.747,725.473 461.58,712.306 502,706.5C 508.136,706.144 511.636,708.977 512.5,715C 509.851,732.617 501.185,746.284 486.5,756C 477.588,759.527 468.588,762.86 459.5,766C 450.167,770.333 440.833,774.667 431.5,779C 426.203,783.559 426.536,787.892 432.5,792C 442.245,797.137 452.578,800.47 463.5,802C 475.359,802.483 487.192,803.316 499,804.5C 501.898,804.363 504.731,803.863 507.5,803C 529.246,794.529 550.913,785.862 572.5,777C 575.167,775.333 577.833,773.667 580.5,772C 589.411,763.085 598.911,754.918 609,747.5C 615.741,730.287 623.074,713.287 631,696.5C 635.869,691.157 641.703,687.49 648.5,685.5 Z"/></g>
</svg>
